<?xml version="1.0" encoding="UTF-8"?>
<svg version="1.1" xmlns="http://www.w3.org/2000/svg" width="328" height="174">
<path d="M0 0 C1.31871094 -0.00257812 2.63742188 -0.00515625 3.99609375 -0.0078125 C6.81114003 0.09701945 8.89959569 0.38821071 11.5625 1.125 C12.06735573 5.4418704 12.57218114 9.75874434 13.07698631 14.07562065 C13.26312731 15.66738405 13.44927568 17.25914659 13.63543129 18.85090828 C14.75591741 28.43191142 15.87575309 38.01298993 16.99414062 47.59423828 C17.40621433 51.1240276 17.81832989 54.65381204 18.23046875 58.18359375 C18.332384 59.05652824 18.43429924 59.92946274 18.53930283 60.82884979 C19.76381002 71.31530531 20.99499679 81.80090881 22.23828125 92.28515625 C22.57758202 95.1581982 22.91654006 98.03128025 23.25527954 100.90438843 C23.45669292 102.60606838 23.65942529 104.30759284 23.86361694 106.00894165 C25.06741882 116.0407932 25.99977614 126.03484283 26.5625 136.125 C23.2625 136.455 19.9625 136.785 16.5625 137.125 C22.46373984 139.31725817 28.37180007 141.48954755 34.28710938 143.64355469 C36.29888234 144.37929993 38.30867322 145.12048835 40.31640625 145.8671875 C43.2007019 146.93882304 46.0915313 147.99075802 48.984375 149.0390625 C49.88242859 149.37749176 50.78048218 149.71592102 51.70574951 150.06460571 C52.9666037 150.51529922 52.9666037 150.51529922 54.25292969 150.97509766 C55.35879425 151.38146957 55.35879425 151.38146957 56.48699951 151.79605103 C59.15091853 152.21825928 60.24636504 151.40721837 62.5625 150.125 C66.11395848 150.26995749 67.89363689 150.45613689 70.4375 153 C71.5625 155.125 71.5625 155.125 71.5625 158.125 C73.2125 158.455 74.8625 158.785 76.5625 159.125 C76.8925 160.445 77.2225 161.765 77.5625 163.125 C75.5825 163.455 73.6025 163.785 71.5625 164.125 C71.624375 164.888125 71.68625 165.65125 71.75 166.4375 C71.5625 169.125 71.5625 169.125 70.4375 170.9375 C67.61786176 172.72327089 65.82791798 172.65812947 62.5625 172.125 C60.125 169.8125 60.125 169.8125 58.5625 167.125 C58.8925 166.135 59.2225 165.145 59.5625 164.125 C57.9125 163.795 56.2625 163.465 54.5625 163.125 C55.5525 167.58 55.5525 167.58 56.5625 172.125 C54.9125 172.125 53.2625 172.125 51.5625 172.125 C51.2325 171.135 50.9025 170.145 50.5625 169.125 C49.5725 169.125 48.5825 169.125 47.5625 169.125 C47.2325 170.115 46.9025 171.105 46.5625 172.125 C44.9125 172.125 43.2625 172.125 41.5625 172.125 C41.8925 169.155 42.2225 166.185 42.5625 163.125 C41.2425 163.125 39.9225 163.125 38.5625 163.125 C38.27375 164.23875 37.985 165.3525 37.6875 166.5 C36.5625 170.125 36.5625 170.125 34.5625 172.125 C31.48680852 172.45220122 29.42428153 172.65989888 26.75 171 C25.14021731 168.45823785 24.89140991 166.0851892 24.5625 163.125 C23.2425 163.125 21.9225 163.125 20.5625 163.125 C20.6553125 164.795625 20.6553125 164.795625 20.75 166.5 C20.688125 167.69625 20.62625 168.8925 20.5625 170.125 C17.09326119 172.43782587 15.64044425 172.54978586 11.5625 172.125 C9.6875 171 9.6875 171 8.5625 169.125 C8.51739869 167.1255086 8.51373402 165.12440538 8.5625 163.125 C6.14575776 163.09794692 3.7293206 163.07813562 1.3125 163.0625 C0.63058594 163.05412109 -0.05132812 163.04574219 -0.75390625 163.03710938 C-4.13092554 163.02071608 -7.21041639 163.06871232 -10.4375 164.125 C-10.4375 164.785 -10.4375 165.445 -10.4375 166.125 C-8.7875 166.125 -7.1375 166.125 -5.4375 166.125 C-5.4375 168.105 -5.4375 170.085 -5.4375 172.125 C-8.7375 172.125 -12.0375 172.125 -15.4375 172.125 C-15.9325 167.67 -15.9325 167.67 -16.4375 163.125 C-17.4275 163.125 -18.4175 163.125 -19.4375 163.125 C-19.7675 166.095 -20.0975 169.065 -20.4375 172.125 C-22.0875 172.125 -23.7375 172.125 -25.4375 172.125 C-25.4375 169.485 -25.4375 166.845 -25.4375 164.125 C-26.0975 164.125 -26.7575 164.125 -27.4375 164.125 C-27.4375 166.765 -27.4375 169.405 -27.4375 172.125 C-29.4175 172.125 -31.3975 172.125 -33.4375 172.125 C-33.4375 169.155 -33.4375 166.185 -33.4375 163.125 C-35.0875 163.125 -36.7375 163.125 -38.4375 163.125 C-38.581875 164.424375 -38.72625 165.72375 -38.875 167.0625 C-39.3125 171 -39.3125 171 -40.4375 172.125 C-42.10367115 172.16563832 -43.77138095 172.167721 -45.4375 172.125 C-45.7675 169.155 -46.0975 166.185 -46.4375 163.125 C-52.3775 163.455 -58.3175 163.785 -64.4375 164.125 C-64.4375 166.435 -64.4375 168.745 -64.4375 171.125 C-65.4375 172.125 -65.4375 172.125 -68 172.1875 C-68.804375 172.166875 -69.60875 172.14625 -70.4375 172.125 C-70.4375 169.155 -70.4375 166.185 -70.4375 163.125 C-71.0975 163.125 -71.7575 163.125 -72.4375 163.125 C-72.87037184 158.36340981 -71.46388167 155.33987387 -69.4375 151.125 C-68.4375 150.125 -68.4375 150.125 -65 150 C-61.4375 150.125 -61.4375 150.125 -59.4375 151.125 C-59.4375 151.785 -59.4375 152.445 -59.4375 153.125 C-58.59574219 152.80789062 -57.75398438 152.49078125 -56.88671875 152.1640625 C-43.42255576 147.10014027 -29.92926099 142.11481942 -16.4375 137.125 C-19.4075 136.795 -22.3775 136.465 -25.4375 136.125 C-24.87771192 122.3042863 -23.46349953 108.6660923 -21.8125 94.9375 C-21.27174041 90.37404967 -20.73523762 85.81010309 -20.19921875 81.24609375 C-20.05855484 80.0519989 -19.91789093 78.85790405 -19.77296448 77.62762451 C-18.64600271 68.01799049 -17.57398777 58.40294655 -16.51953125 48.78515625 C-16.35951158 47.32829125 -16.19947746 45.87142784 -16.03942871 44.41456604 C-15.33392774 37.9876362 -14.63111855 31.56043205 -13.93492222 25.1324873 C-13.71570269 23.11404467 -13.4947831 21.09579676 -13.27311707 19.07762146 C-13.00056087 16.59502096 -12.73098338 14.1120911 -12.46479797 11.62879944 C-12.3438829 10.53361496 -12.22296783 9.43843048 -12.09838867 8.31005859 C-11.99435226 7.35215424 -11.89031586 6.39424988 -11.78312683 5.40731812 C-11.4375 3.125 -11.4375 3.125 -10.4375 1.125 C-6.89615331 -0.0554489 -3.68304786 -0.02118724 0 0 Z M13.5625 157.125 C13.5625 160.095 13.5625 163.065 13.5625 166.125 C14.5525 166.62 14.5525 166.62 15.5625 167.125 C15.8925 165.805 16.2225 164.485 16.5625 163.125 C15.9025 163.125 15.2425 163.125 14.5625 163.125 C14.5625 161.145 14.5625 159.165 14.5625 157.125 C14.2325 157.125 13.9025 157.125 13.5625 157.125 Z M-6.4375 159.125 C-5.4375 162.125 -5.4375 162.125 -5.4375 162.125 Z M30.5625 159.125 C30.5625 161.765 30.5625 164.405 30.5625 167.125 C31.2225 166.795 31.8825 166.465 32.5625 166.125 C32.5625 164.145 32.5625 162.165 32.5625 160.125 C31.9025 159.795 31.2425 159.465 30.5625 159.125 Z M53.5625 159.125 C54.5625 161.125 54.5625 161.125 54.5625 161.125 Z M-60.4375 160.125 C-59.4375 162.125 -59.4375 162.125 -59.4375 162.125 Z M61.5625 161.125 C61.5625 161.785 61.5625 162.445 61.5625 163.125 C62.2225 162.795 62.8825 162.465 63.5625 162.125 C62.9025 161.795 62.2425 161.465 61.5625 161.125 Z M16.5625 162.125 C20.5625 163.125 20.5625 163.125 20.5625 163.125 Z M64.5625 164.125 C65.5625 167.125 65.5625 167.125 65.5625 167.125 Z " fill="rgba(124,240,10,0.5)" fill-opacity="0" transform="translate(164.4375,1.875)"/>
<path d="M0 0 C-0.58675071 14.58253609 -1.58874048 29.08862903 -2.875 43.625 C-3.05355919 45.67973261 -3.23169409 47.73450212 -3.40942383 49.78930664 C-3.8522013 54.89984382 -4.29909375 60.01000991 -4.74749756 65.12005615 C-5.33593589 71.83155303 -5.91886074 78.54352351 -6.49835205 85.25579834 C-6.67984856 87.34924552 -6.8639058 89.44245442 -7.04833984 91.53564453 C-7.69591647 98.99539081 -8.24983714 106.44953723 -8.62345886 113.92784119 C-8.89167067 118.78334134 -8.89167067 118.78334134 -10 121 C-16.6 121 -23.2 121 -30 121 C-32.30020484 105.35860707 -34.57621535 89.82835678 -35 74 C-35.66 74 -36.32 74 -37 74 C-37.03738281 75.00933594 -37.07476562 76.01867187 -37.11328125 77.05859375 C-37.52448762 86.54986252 -38.36261351 95.94242993 -39.5 105.375 C-39.69589722 107.00586548 -39.69589722 107.00586548 -39.89575195 108.66967773 C-40.41829825 112.87685386 -40.97002472 116.88009887 -42 121 C-48.27 121 -54.54 121 -61 121 C-64.02527154 99.59175495 -66.50804557 78.13565263 -68.89306641 56.64770508 C-69.13946164 54.43308468 -69.38603935 52.21848457 -69.6328125 50.00390625 C-69.75070633 48.94396957 -69.86860016 47.8840329 -69.99006653 46.79197693 C-70.77039024 39.84648268 -71.64351351 32.92207093 -72.64526367 26.00512695 C-73.19326524 21.36276541 -73.39634868 16.66401007 -73 12 C-71.39931288 10.39931288 -69.51647303 10.55017293 -67.30859375 10.24609375 C-66.36435547 10.11396484 -65.42011719 9.98183594 -64.44726562 9.84570312 C-63.45404297 9.71099609 -62.46082031 9.57628906 -61.4375 9.4375 C-59.94186523 9.22963867 -59.94186523 9.22963867 -58.41601562 9.01757812 C-55.94450284 8.67464094 -53.47251455 8.33562546 -51 8 C-51.309375 8.515625 -51.61875 9.03125 -51.9375 9.5625 C-54.34355276 15.0822681 -54.0580503 20.55792862 -53.4765625 26.4375 C-53.37811539 27.46315063 -53.37811539 27.46315063 -53.27767944 28.50952148 C-53.0678483 30.67385482 -52.84644235 32.83682738 -52.625 35 C-52.48365078 36.45045044 -52.3430198 37.90097106 -52.203125 39.3515625 C-51.59248088 45.58954891 -50.92062797 51.79997456 -50 58 C-49.93958023 57.44956024 -49.87916046 56.89912048 -49.81690979 56.33200073 C-49.18618314 50.58894981 -48.55311415 44.84616048 -47.91870117 39.10351562 C-47.68242618 36.96197995 -47.44674301 34.82037888 -47.21166992 32.67871094 C-46.8731496 29.59552801 -46.53248257 26.51258859 -46.19140625 23.4296875 C-46.08719864 22.47633514 -45.98299103 21.52298279 -45.87562561 20.54074097 C-45.37124452 16.00016855 -44.81513667 11.49798306 -44 7 C-33.17112299 4.52139037 -33.17112299 4.52139037 -29 4 C-26.78100001 6.21899999 -27.18696686 11.13139613 -26.84375 14.22265625 C-26.7365564 15.15669785 -26.62936279 16.09073944 -26.5189209 17.05308533 C-26.17519696 20.05577415 -25.83747117 23.0591026 -25.5 26.0625 C-25.16118584 29.04073913 -24.82116914 32.01883932 -24.4810791 34.99693298 C-24.26967241 36.85225314 -24.05925266 38.7076861 -23.84997559 40.56324768 C-23.26826043 45.71368422 -22.65350024 50.85816162 -22 56 C-21.49558626 49.22046574 -21.01587893 42.43951017 -20.5534668 35.65698242 C-20.39316724 33.34896112 -20.22717521 31.04132795 -20.05541992 28.73413086 C-19.80978488 25.42126168 -19.58452979 22.10754456 -19.36328125 18.79296875 C-19.24162346 17.24128242 -19.24162346 17.24128242 -19.11750793 15.6582489 C-19.05721909 14.6974794 -18.99693024 13.7367099 -18.93481445 12.74682617 C-18.84487968 11.47774666 -18.84487968 11.47774666 -18.75312805 10.18302917 C-19.06147387 7.45640139 -19.99770426 6.77795987 -22 5 C-22 4.34 -22 3.68 -22 3 C-19.45953542 2.49311395 -16.91791124 1.99433126 -14.375 1.5 C-13.66214844 1.35691406 -12.94929688 1.21382812 -12.21484375 1.06640625 C-11.16103516 0.86337891 -11.16103516 0.86337891 -10.0859375 0.65625 C-9.1276001 0.46772461 -9.1276001 0.46772461 -8.14990234 0.27539062 C-5.42204575 -0.07403275 -2.74685187 -0.04104884 0 0 Z " fill="#4E3D97" transform="translate(75,17)"/>
<path d="M0 0 C3.95053067 0.59909062 7.89686188 1.22060754 11.84082031 1.86157227 C13.82958092 2.1802227 15.82103513 2.48191504 17.8125 2.78320312 C27.63555743 4.39557366 37.49229807 6.56175618 43.71743774 14.9810791 C48.17956622 22.00505348 48.4565063 29.58406524 48.43359375 37.68359375 C48.4388356 38.77914078 48.44407745 39.87468781 48.44947815 41.00343323 C48.45587046 43.30867672 48.45459778 45.61395296 48.44604492 47.91918945 C48.43753294 51.42393691 48.46634116 54.92705361 48.49804688 58.43164062 C48.49965923 60.68229118 48.49908071 62.9329446 48.49609375 65.18359375 C48.50732773 66.21931015 48.51856171 67.25502655 48.53013611 68.3221283 C48.47182476 74.48369411 47.52816511 79.22233037 44.95521545 84.83729553 C42.81299869 89.68749111 43.15036225 93.39283961 43.99609375 98.546875 C44.10848892 99.27690735 44.22088409 100.0069397 44.33668518 100.75909424 C44.69619925 103.09062517 45.06584873 105.42037518 45.4375 107.75 C45.80496171 110.06541949 46.16994641 112.38110367 46.52760315 114.69805908 C46.74987553 116.13708788 46.97765316 117.5752817 47.21202087 119.01239014 C47.95854243 123.8325308 48 128.00774876 48 133 C42.06 133 36.12 133 30 133 C29.79503906 131.55367187 29.59007812 130.10734375 29.37890625 128.6171875 C29.10680837 126.70311966 28.83467087 124.78905746 28.5625 122.875 C28.42779297 121.92367187 28.29308594 120.97234375 28.15429688 119.9921875 C27.61207205 116.18338871 27.06695263 112.38409667 26.40625 108.59375 C25.84561193 105.01429154 25.93761072 101.61857822 26 98 C24.515 98.495 24.515 98.495 23 99 C22.67 110.22 22.34 121.44 22 133 C16.06 133 10.12 133 4 133 C3.99413376 131.41559616 3.98826752 129.83119232 3.98222351 128.19877625 C3.92509539 113.2921457 3.85256457 98.385681 3.76428509 83.47920513 C3.71929315 75.81500815 3.67988644 68.15085798 3.65356445 60.48657227 C3.63061176 53.80744348 3.59724459 47.12846245 3.55129844 40.44945079 C3.52732909 36.9119689 3.50862478 33.37463366 3.50238609 29.83707237 C3.49523171 25.89081101 3.46482912 21.94491782 3.43237305 17.9987793 C3.43380814 16.82202133 3.43524323 15.64526337 3.4367218 14.43284607 C3.42418365 13.36012451 3.41164551 12.28740295 3.39872742 11.18217468 C3.39411845 10.24839839 3.38950949 9.3146221 3.38476086 8.35254955 C2.92606703 5.54795045 2.03294815 4.87932695 0 3 C0 2.01 0 1.02 0 0 Z M22 24 C22 42.15 22 60.3 22 79 C24.475 78.505 24.475 78.505 27 78 C29.12665845 74.81001233 29.25714409 73.96597182 29.29052734 70.30078125 C29.30328705 69.34969482 29.31604675 68.3986084 29.32919312 67.41870117 C29.33141876 66.39365479 29.33364441 65.3686084 29.3359375 64.3125 C29.3425943 63.25844971 29.3492511 62.20439941 29.35610962 61.1184082 C29.36623761 58.88917793 29.37092659 56.65991732 29.37060547 54.43066406 C29.37498313 51.01316698 29.41131473 47.59695638 29.44921875 44.1796875 C29.45508585 42.01562943 29.45905596 39.85156521 29.4609375 37.6875 C29.47530853 36.66245361 29.48967957 35.63740723 29.50448608 34.58129883 C29.49833282 33.6302124 29.49217957 32.67912598 29.48583984 31.69921875 C29.4901149 30.44371216 29.4901149 30.44371216 29.49447632 29.1628418 C29.16945448 26.8400796 29.16945448 26.8400796 27.15713501 25.20629883 C24.97551996 23.75595968 24.97551996 23.75595968 22 24 Z " fill="#606FC3" transform="translate(189,5)"/>
<path d="M0 0 C15.34108642 0.85720907 30.93871747 1.77492128 42.45703125 12.828125 C46.59042848 18.64627401 47.44694274 24.63392986 47.41992188 31.55224609 C47.42839142 32.36640488 47.43686096 33.18056366 47.44558716 34.01939392 C47.46881973 36.68757118 47.46998261 39.35516711 47.46875 42.0234375 C47.47585996 43.89377061 47.48356017 45.76410155 47.49182129 47.63442993 C47.50523463 51.54638742 47.50684909 55.4581432 47.50097656 59.37011719 C47.495084 64.36223612 47.52566842 69.35338134 47.56609344 74.34531212 C47.59204987 78.20601539 47.59484067 82.06648668 47.59120178 85.92726517 C47.59288565 87.76672436 47.60245697 89.60619511 47.62034607 91.44556808 C47.78385348 110.33475328 47.78385348 110.33475328 42 118 C39.4375 120.5 39.4375 120.5 37 122 C36.42862305 122.35690918 35.85724609 122.71381836 35.26855469 123.08154297 C32.18532141 124.32983436 29.58659398 124.22444381 26.265625 124.1953125 C24.97011719 124.18886719 23.67460937 124.18242187 22.33984375 124.17578125 C20.97655981 124.15907193 19.61327856 124.14214206 18.25 124.125 C16.87110015 124.1149634 15.49219335 124.10583873 14.11328125 124.09765625 C10.74201118 124.07408093 7.37109364 124.0411727 4 124 C3.99761165 123.38947124 3.99522329 122.77894247 3.99276257 122.14991283 C3.9336575 107.30263586 3.85813643 92.45551082 3.76428509 77.60841656 C3.71929638 70.42849379 3.67988894 63.24862097 3.65356445 56.06860352 C3.63060912 49.81137052 3.59723903 43.55429517 3.55129844 37.29718715 C3.5273325 33.98325737 3.51017918 30.66951808 3.50238609 27.35550499 C3.49280845 23.65823312 3.46482456 19.96153603 3.43237305 16.2644043 C3.43380814 15.16245224 3.43524323 14.06050018 3.4367218 12.92515564 C3.42418365 11.91974731 3.41164551 10.91433899 3.39872742 9.87846375 C3.39411845 9.0036822 3.38950949 8.12890066 3.38476086 7.22761059 C2.92016047 4.53776126 1.99010557 3.78100934 0 2 C0 1.34 0 0.68 0 0 Z M22 22 C22 49.06 22 76.12 22 104 C23.65 104 25.3 104 27 104 C29.3187086 100.33097701 29.25345343 97.18656731 29.25878906 92.90820312 C29.2622937 92.20203354 29.26579834 91.49586395 29.26940918 90.76829529 C29.27819573 88.43917954 29.27238833 86.11036872 29.265625 83.78125 C29.26697254 82.15987083 29.26891381 80.53849205 29.27142334 78.91711426 C29.27437043 75.52103829 29.27009032 72.12506762 29.26074219 68.72900391 C29.24934786 64.37769438 29.25590956 60.02663159 29.26788712 55.67533112 C29.27511693 52.32788232 29.27281263 48.98049194 29.26763153 45.63304138 C29.26629814 44.02868114 29.26793189 42.42431558 29.27259064 40.81996155 C29.27767432 38.57709723 29.26991999 36.33463153 29.25878906 34.09179688 C29.25719788 32.81590698 29.25560669 31.54001709 29.25396729 30.22546387 C28.96603857 26.2764864 28.96603857 26.2764864 27 23 C25.35 22.67 23.7 22.34 22 22 Z " fill="#5B54B2" transform="translate(237,14)"/>
<path d="M0 0 C0.20213475 5.53555858 -0.53010062 10.42855959 -1.72265625 15.82421875 C-1.90341705 16.67103714 -2.08417786 17.51785553 -2.27041626 18.39033508 C-2.65934814 20.20999914 -3.05134956 22.02900935 -3.44613647 23.84741211 C-4.49723305 28.69066864 -5.52552237 33.53876258 -6.5546875 38.38671875 C-6.76338974 39.36760468 -6.97209198 40.3484906 -7.18711853 41.35910034 C-9.13473307 50.55140692 -10.92814182 59.77014218 -12.6875 69 C-15.50306072 83.73585199 -18.62939907 98.37971435 -22 113 C-19.56077639 112.91299202 -17.12521586 112.80613998 -14.6875 112.6875 C-13.99720703 112.66494141 -13.30691406 112.64238281 -12.59570312 112.61914062 C-8.54757542 112.44765943 -8.54757542 112.44765943 -5.14453125 110.45703125 C-4.76683594 109.97621094 -4.38914063 109.49539062 -4 109 C-3.34 109 -2.68 109 -2 109 C-2.30858158 112.06290797 -2.62256293 115.12523952 -2.9375 118.1875 C-3.02451172 119.05181641 -3.11152344 119.91613281 -3.20117188 120.80664062 C-3.28818359 121.64775391 -3.37519531 122.48886719 -3.46484375 123.35546875 C-3.543396 124.12528076 -3.62194824 124.89509277 -3.70288086 125.68823242 C-4.01842382 128.14334855 -4.51455165 130.57275826 -5 133 C-17.87 133 -30.74 133 -44 133 C-41.7530648 118.39492119 -41.7530648 118.39492119 -40.703125 113.4765625 C-40.46988525 112.37030518 -40.23664551 111.26404785 -39.99633789 110.12426758 C-39.62690063 108.39213013 -39.62690063 108.39213013 -39.25 106.625 C-38.71055071 104.05893067 -38.17225109 101.49266648 -37.63671875 98.92578125 C-37.43187111 97.94435402 -37.43187111 97.94435402 -37.22288513 96.94309998 C-35.76282431 89.91370717 -34.41080298 82.86408389 -33.0625 75.8125 C-30.99319071 65.02455627 -28.8632057 54.25078963 -26.65890503 43.48959351 C-26.34619191 41.96246757 -26.03443488 40.43514552 -25.72366333 38.90762329 C-25.29142853 36.78544355 -24.85534423 34.66409418 -24.41796875 32.54296875 C-24.04321411 30.7180188 -24.04321411 30.7180188 -23.66088867 28.85620117 C-23 26 -23 26 -22 24 C-24.27312618 24.22821346 -26.54356309 24.4833367 -28.8125 24.75 C-30.07707031 24.88921875 -31.34164062 25.0284375 -32.64453125 25.171875 C-36.39040068 26.09635034 -37.05458467 26.82011846 -39 30 C-39.66 30 -40.32 30 -41 30 C-41 22.41 -41 14.82 -41 7 C-35.32183108 6.00231187 -29.64357826 5.00513019 -23.96508789 4.00927734 C-22.03176617 3.67006386 -20.09849779 3.33054617 -18.1652832 2.99072266 C-15.39287938 2.50343877 -12.62028801 2.01723507 -9.84765625 1.53125 C-8.54297142 1.30157532 -8.54297142 1.30157532 -7.21192932 1.06726074 C-1.11387171 0 -1.11387171 0 0 0 Z " fill="#5D6EBE" transform="translate(141,5)"/>
<path d="M0 0 C5.65138272 1.30124274 10.90658061 3.72492925 14.12109375 8.75390625 C18.18486792 16.3604579 19.35655937 23.44257522 19 32 C13.38798394 34.24480642 7.92863717 35.83348574 2 37 C1.95101563 35.95199219 1.90203125 34.90398438 1.8515625 33.82421875 C1.77651857 32.44528646 1.70097143 31.0663815 1.625 29.6875 C1.5940625 28.99720703 1.563125 28.30691406 1.53125 27.59570312 C1.31875081 23.93009211 1.08066139 22.12099208 -1 19 C-1.99 18.67 -2.98 18.34 -4 18 C-2.48807953 30.51313122 1.17535628 40.60043995 6.85253906 51.72558594 C9.33818309 56.61132159 11.6678583 61.54477028 13.875 66.5625 C14.16093018 67.20469482 14.44686035 67.84688965 14.74145508 68.50854492 C17.96106358 75.91335452 19.38029533 82.43520226 19.4375 90.4375 C19.47037109 91.24509766 19.50324219 92.05269531 19.53710938 92.88476562 C19.59877911 99.8422332 17.31203094 104.5790277 12.48583984 109.56396484 C7.29408764 114.16957788 2.52784462 114.37789545 -4.18359375 114.26171875 C-8.52756857 113.85804841 -11.66331735 112.85585065 -15 110 C-21.80643439 101.3210531 -22.17049626 93.64654397 -22 83 C-19.91999989 82.15838146 -17.83585854 81.32699237 -15.75 80.5 C-14.00976562 79.80390625 -14.00976562 79.80390625 -12.234375 79.09375 C-9 78 -9 78 -5 78 C-4.34 83.28 -3.68 88.56 -3 94 C-1.515 94.495 -1.515 94.495 0 95 C2.02932256 90.94135489 0.47417062 85.79610083 -0.64453125 81.55859375 C-2.90065815 74.81081695 -6.20270536 68.71572274 -9.56689453 62.47729492 C-17.87392159 47.00318571 -25.95919241 28.88476056 -20.8125 11.0625 C-17.0055159 1.10299658 -9.71669133 -0.86400128 0 0 Z " fill="#47348B" transform="translate(309,25)"/>
<path d="M0 0 C1.31871094 -0.00257812 2.63742188 -0.00515625 3.99609375 -0.0078125 C6.81114003 0.09701945 8.89959569 0.38821071 11.5625 1.125 C12.7485891 10.85218072 13.92287469 20.58071107 15.08286285 30.31104088 C15.62207595 34.83110591 16.16506691 39.3506445 16.71728516 43.86914062 C17.25188788 48.24473378 17.77579213 52.62149674 18.29286194 56.9991951 C18.49009408 58.65383611 18.69092427 60.30805309 18.89573669 61.96177292 C20.06469898 71.42241991 20.77647386 80.68087462 20.58069611 90.22147179 C20.49136141 94.8926231 20.94366665 98.98940603 22.0546875 103.50390625 C22.99935857 108.37986233 23.08165006 113.36497072 23.34375 118.31640625 C23.59074788 122.61681572 24.02840376 126.8522301 24.5625 131.125 C19.7581792 133.5271604 14.83146105 133.73622229 9.5625 134.125 C7.33977162 125.38226837 6.82057398 116.73866806 6.31640625 107.7578125 C6.25271851 106.63632813 6.25271851 106.63632813 6.18774414 105.4921875 C6.10644118 104.03665849 6.02860068 102.5809304 5.95483398 101.125 C5.77543445 97.80669997 5.47947757 94.59081619 4.96875 91.3046875 C4.5625 88.125 4.5625 88.125 5.5625 85.125 C5.60652805 83.72986122 5.60201218 82.33277398 5.5625 80.9375 C5.50819671 77.88170555 5.69077124 75.12559304 6.25 72.125 C6.8569446 68.01582101 5.7207074 65.0025858 4.265625 61.1796875 C3.43614727 58.75576925 3.3162721 56.66935493 3.5625 54.125 C2.9025 54.125 2.2425 54.125 1.5625 54.125 C0.5725 50.66 0.5725 50.66 -0.4375 47.125 C-1.0975 52.075 -1.7575 57.025 -2.4375 62.125 C-5.4375 63.125 -5.4375 63.125 -8.4375 63.125 C-10.36571186 65.57980059 -10.36571186 65.57980059 -12.125 68.625 C-12.74761719 69.6459375 -13.37023437 70.666875 -14.01171875 71.71875 C-14.48222656 72.5128125 -14.95273438 73.306875 -15.4375 74.125 C-16.4921875 72.328125 -16.4921875 72.328125 -17.4375 70.125 C-16.5625 66.875 -16.5625 66.875 -15.4375 64.125 C-16.0975 64.125 -16.7575 64.125 -17.4375 64.125 C-16.84318789 51.96155998 -15.64485868 39.90053455 -14.28076172 27.80175781 C-13.93266308 24.70699754 -13.59296135 21.61138778 -13.25390625 18.515625 C-13.03434792 16.54421578 -12.81431411 14.57285944 -12.59375 12.6015625 C-12.44214417 11.21585556 -12.44214417 11.21585556 -12.28747559 9.80215454 C-12.19067505 8.95301483 -12.09387451 8.10387512 -11.99414062 7.22900391 C-11.91055298 6.48228424 -11.82696533 5.73556458 -11.74084473 4.96621704 C-11.4375 3.125 -11.4375 3.125 -10.4375 1.125 C-6.89615331 -0.0554489 -3.68304786 -0.02118724 0 0 Z " fill="#7176BA" transform="translate(164.4375,1.875)"/>
<path d="M0 0 C0 41.25 0 82.5 0 125 C-5.94 125 -11.88 125 -18 125 C-18 84.74 -18 44.48 -18 3 C-2 0 -2 0 0 0 Z " fill="#5D5DB9" transform="translate(95,13)"/>
<path d="M0 0 C0.33 0 0.66 0 1 0 C1.21944942 10.82617124 0.8561439 23.3344466 -6.6953125 31.75 C-7.12585938 32.1625 -7.55640625 32.575 -8 33 C-9.86003462 34.86003462 -9.68907929 37.8689321 -10.0625 40.375 C-10.23910156 41.53773437 -10.41570312 42.70046875 -10.59765625 43.8984375 C-11.06432251 46.97458698 -11.06432251 46.97458698 -11 50 C-11.72511519 51.68094885 -12.45366427 53.36063491 -13.2109375 55.02734375 C-14.03547906 57.08869764 -14.52899163 59.08256316 -15 61.25 C-16.32432432 66.21621622 -16.32432432 66.21621622 -19 68 C-19.66 68 -20.32 68 -21 68 C-21.33 69.32 -21.66 70.64 -22 72 C-22.19244717 64.47579305 -21.60881564 57.18643931 -20.72265625 49.71875 C-20.59185165 48.58344849 -20.46104706 47.44814697 -20.32627869 46.27844238 C-20.05074066 43.89820051 -19.77242575 41.51827858 -19.49145508 39.13867188 C-19.06059961 35.4838797 -18.64002248 31.82800684 -18.22070312 28.171875 C-17.95112444 25.85409638 -17.68096309 23.53638544 -17.41015625 21.21875 C-17.28407486 20.12300659 -17.15799347 19.02726318 -17.02809143 17.89831543 C-16.90804245 16.88966431 -16.78799347 15.88101318 -16.66430664 14.84179688 C-16.5599379 13.95262573 -16.45556915 13.06345459 -16.34803772 12.14733887 C-16 10 -16 10 -15 8 C-14.34 8 -13.68 8 -13 8 C-13.29296875 10.05078125 -13.5859375 12.1015625 -13.87890625 14.15234375 C-13.91886719 14.76207031 -13.95882812 15.37179688 -14 16 C-13.67 16.33 -13.34 16.66 -13 17 C-12.60167969 16.30132812 -12.20335937 15.60265625 -11.79296875 14.8828125 C-10.99826172 13.51769531 -10.99826172 13.51769531 -10.1875 12.125 C-9.66542969 11.22007813 -9.14335937 10.31515625 -8.60546875 9.3828125 C-7 7 -7 7 -4 5 C-1.8125 5.375 -1.8125 5.375 0 6 C0 4.02 0 2.04 0 0 Z " fill="#A0D9F7" transform="translate(162,58)"/>
<path d="M0 0 C0.33 0 0.66 0 1 0 C1.13434052 7.60516598 0.72982117 15.10803913 0.125 22.6875 C0.03549072 23.83653809 -0.05401855 24.98557617 -0.14624023 26.16943359 C-0.72495688 33.33136798 -1.51725886 40.40276327 -2.55859375 47.51171875 C-3.37797303 53.98699038 -3.65399746 60.48361887 -4 67 C-9.94 67 -15.88 67 -22 67 C-22 61.90249579 -21.99061578 59.4551877 -20 55 C-19.175 54.21625 -18.35 53.4325 -17.5 52.625 C-14.66448497 49.64770922 -14.17670276 47.83835678 -13.40234375 43.9296875 C-12.89379614 41.49063391 -11.94632843 39.2982262 -11 37 C-11 36.34 -11 35.68 -11 35 C-9.94525523 20.97916865 -9.94525523 20.97916865 -4.39453125 15.64453125 C-1.81768673 12.60573141 -1.55268782 8.84010368 -1 5 C-0.690625 3.4840625 -0.690625 3.4840625 -0.375 1.9375 C-0.25125 1.298125 -0.1275 0.65875 0 0 Z " fill="#BDF1FB" transform="translate(161,71)"/>
<path d="M0 0 C2.8125 0.875 2.8125 0.875 4.8125 2.875 C5.0653288 5.38564876 5.18274359 7.73861315 5.1875 10.25 C5.21199219 10.92289063 5.23648438 11.59578125 5.26171875 12.2890625 C5.28191757 15.70939663 5.05082786 17.55638259 2.98046875 20.32421875 C0.06395426 22.41044623 -1.67834611 22.39763994 -5.1875 21.875 C-6.83984375 20.8125 -6.83984375 20.8125 -8.1875 18.875 C-8.54083741 16.28680345 -8.69741486 14.02279924 -8.6875 11.4375 C-8.7184375 10.11878906 -8.749375 8.80007812 -8.78125 7.44140625 C-8.1875 3.875 -8.1875 3.875 -5.85546875 1.39453125 C-3.1875 -0.125 -3.1875 -0.125 0 0 Z M-2.1875 5.875 C-2.1875 9.505 -2.1875 13.135 -2.1875 16.875 C-1.8575 16.875 -1.5275 16.875 -1.1875 16.875 C-1.1875 13.245 -1.1875 9.615 -1.1875 5.875 C-1.5175 5.875 -1.8475 5.875 -2.1875 5.875 Z " fill="#3B216E" transform="translate(86.1875,152.125)"/>
<path d="M0 0 C3.39796141 1.06186294 4.35513579 1.83053427 6 4.9375 C6 5.9275 6 6.9175 6 7.9375 C7.65 8.2675 9.3 8.5975 11 8.9375 C11.33 10.2575 11.66 11.5775 12 12.9375 C10.02 13.2675 8.04 13.5975 6 13.9375 C6.061875 14.700625 6.12375 15.46375 6.1875 16.25 C6 18.9375 6 18.9375 4.875 20.75 C2.05536176 22.53577089 0.26541798 22.47062947 -3 21.9375 C-5.4375 19.625 -5.4375 19.625 -7 16.9375 C-6 13.9375 -6 13.9375 -3 11.9375 C-3.495 11.56625 -3.99 11.195 -4.5 10.8125 C-6 8.9375 -6 8.9375 -6.375 5.9375 C-6 2.9375 -6 2.9375 -4.875 1 C-3 -0.0625 -3 -0.0625 0 0 Z M-1 13.9375 C0 16.9375 0 16.9375 0 16.9375 Z " fill="#5F5990" transform="translate(230,152.0625)"/>
<path d="M0 0 C0.33 0 0.66 0 1 0 C1 41.25 1 82.5 1 125 C-4.94 125 -10.88 125 -17 125 C-17 120.38 -17 115.76 -17 111 C-16.67 111 -16.34 111 -16 111 C-15.67 114.96 -15.34 118.92 -15 123 C-12.525 122.505 -12.525 122.505 -10 122 C-8.33034549 122.31802943 -6.66321482 122.64984951 -5 123 C-3.515 122.505 -3.515 122.505 -2 122 C-1.34 81.74 -0.68 41.48 0 0 Z " fill="#7997F0" transform="translate(94,13)"/>
<path d="M0 0 C1.98 0 3.96 0 6 0 C6 2.31 6 4.62 6 7 C6.66 7 7.32 7 8 7 C8 4.69 8 2.38 8 0 C9.65 0 11.3 0 13 0 C13 6.93 13 13.86 13 21 C11.35 21 9.7 21 8 21 C8 18.36 8 15.72 8 13 C7.34 13 6.68 13 6 13 C6 15.64 6 18.28 6 21 C4.02 21 2.04 21 0 21 C0 14.07 0 7.14 0 0 Z " fill="#7B90E2" transform="translate(131,153)"/>
<path d="M0 0 C3.5625 0.3125 3.5625 0.3125 5.26171875 1.36328125 C7.24778782 4.33940276 6.99669251 7.35960372 6.9375 10.8125 C6.94910156 11.48925781 6.96070313 12.16601562 6.97265625 12.86328125 C6.95542435 15.77547203 6.90086527 17.81979268 5.2265625 20.2578125 C2.6068298 21.91820647 0.579559 21.68963238 -2.4375 21.3125 C-4.47417615 19.76743534 -5.29823078 18.59103844 -6.4375 16.3125 C-6.40029449 13.97713902 -6.28496067 11.64267332 -6.125 9.3125 C-6.04636719 8.054375 -5.96773437 6.79625 -5.88671875 5.5 C-5.25399991 1.01044718 -4.5168922 0.41062656 0 0 Z M-0.4375 8.3125 C-0.4375 10.9525 -0.4375 13.5925 -0.4375 16.3125 C0.2225 15.9825 0.8825 15.6525 1.5625 15.3125 C1.5625 13.3325 1.5625 11.3525 1.5625 9.3125 C0.9025 8.9825 0.2425 8.6525 -0.4375 8.3125 Z " fill="#8ABFE4" transform="translate(195.4375,152.6875)"/>
<path d="M0 0 C0.66 0.33 1.32 0.66 2 1 C1.64451795 2.77741026 1.28903491 4.55482033 0.93354797 6.33222961 C0.6128842 7.93556919 0.29223654 9.53891199 -0.02839661 11.14225769 C-0.92489129 15.62510488 -1.82167845 20.10789324 -2.71899414 24.59057617 C-4.42927867 33.13603715 -6.13701963 41.68196413 -7.83203125 50.23046875 C-8.10785249 51.61898932 -8.38372956 53.0074988 -8.65966797 54.39599609 C-9.16936876 56.96241799 -9.67756224 59.5291398 -10.18408203 62.09619141 C-10.4107959 63.23620605 -10.63750977 64.3762207 -10.87109375 65.55078125 C-11.06630615 66.53731689 -11.26151855 67.52385254 -11.46264648 68.5402832 C-12 71 -12 71 -13 74 C-10.56077639 73.91299202 -8.12521586 73.80613998 -5.6875 73.6875 C-4.99720703 73.66494141 -4.30691406 73.64238281 -3.59570312 73.61914062 C0.45242458 73.44765943 0.45242458 73.44765943 3.85546875 71.45703125 C4.23316406 70.97621094 4.61085937 70.49539062 5 70 C5.66 70 6.32 70 7 70 C6.74438677 72.3431213 6.40729228 74.67843403 6 77 C5.01 77.495 5.01 77.495 4 78 C3.67 77.01 3.34 76.02 3 75 C2.05125 75.165 1.1025 75.33 0.125 75.5 C-4.55066844 76.17069015 -9.28641364 76.3070152 -14 76 C-15 75 -15 75 -15.00854492 73.1706543 C-14.1927202 63.58124911 -12.22842367 54.22939606 -10.3125 44.8125 C-10.13525391 43.93158691 -9.95800781 43.05067383 -9.77539062 42.14306641 C-6.92350769 27.98403387 -3.74355998 13.95326902 0 0 Z " fill="#7AB4F8" transform="translate(132,44)"/>
<path d="M0 0 C1.98 0 3.96 0 6 0 C8.11715376 5.06275899 9.37560147 9.44843847 9.7890625 14.921875 C10.00266524 17.02625753 10.44026912 18.96294665 11 21 C9.35 21 7.7 21 6 21 C5.67 20.01 5.34 19.02 5 18 C4.01 18 3.02 18 2 18 C1.67 18.99 1.34 19.98 1 21 C-0.65 21 -2.3 21 -4 21 C-2.74602127 13.98305518 -1.42415912 6.98443993 0 0 Z " fill="#7D82DF" transform="translate(210,153)"/>
<path d="M0 0 C2.21617351 4.43234703 2.45151713 7.91875114 2.625 12.75 C2.66294678 13.66217285 2.70089355 14.5743457 2.73999023 15.51416016 C3.32931178 32.32786475 3.08033622 49.17883083 3 66 C4.485 65.505 4.485 65.505 6 65 C6 65.66 6 66.32 6 67 C8.475 66.01 8.475 66.01 11 65 C11 65.66 11 66.32 11 67 C13.475 66.505 13.475 66.505 16 66 C16.33 59.07 16.66 52.14 17 45 C17.33 45 17.66 45 18 45 C18 52.92 18 60.84 18 69 C12.06 69 6.12 69 0 69 C0 46.23 0 23.46 0 0 Z " fill="#7CE0FD" transform="translate(193,69)"/>
<path d="M0 0 C3.4375 0.375 3.4375 0.375 5.4375 2.375 C5.5625 5.5 5.5625 5.5 5.4375 8.375 C3.7875 8.705 2.1375 9.035 0.4375 9.375 C0.1075 8.385 -0.2225 7.395 -0.5625 6.375 C-0.5625 9.345 -0.5625 12.315 -0.5625 15.375 C0.0975 14.385 0.7575 13.395 1.4375 12.375 C2.7575 12.375 4.0775 12.375 5.4375 12.375 C5.625 15.75 5.625 15.75 5.4375 19.375 C1.96826119 21.68782587 0.51544425 21.79978586 -3.5625 21.375 C-5.2265625 20.2890625 -5.2265625 20.2890625 -6.5625 18.375 C-6.9609375 15.16015625 -6.9609375 15.16015625 -6.9375 11.4375 C-6.94523438 10.21160156 -6.95296875 8.98570312 -6.9609375 7.72265625 C-6.34560127 2.55262536 -5.2828426 0.55608869 0 0 Z " fill="#6663C2" transform="translate(179.5625,152.625)"/>
<path d="M0 0 C3.5625 0.125 3.5625 0.125 5.5625 1.125 C5.2325 2.775 4.9025 4.425 4.5625 6.125 C3.2425 6.125 1.9225 6.125 0.5625 6.125 C0.5625 6.785 0.5625 7.445 0.5625 8.125 C1.8825 8.125 3.2025 8.125 4.5625 8.125 C4.2325 10.105 3.9025 12.085 3.5625 14.125 C2.5725 14.125 1.5825 14.125 0.5625 14.125 C0.583125 15.259375 0.60375 16.39375 0.625 17.5625 C0.5625 21.125 0.5625 21.125 -0.4375 22.125 C-2.10367115 22.16563832 -3.77138095 22.167721 -5.4375 22.125 C-5.4375 19.155 -5.4375 16.185 -5.4375 13.125 C-6.0975 13.125 -6.7575 13.125 -7.4375 13.125 C-7.87037184 8.36340981 -6.46388167 5.33987387 -4.4375 1.125 C-3.4375 0.125 -3.4375 0.125 0 0 Z " fill="#514098" transform="translate(99.4375,151.875)"/>
<path d="M0 0 C0.33 0 0.66 0 1 0 C1.05585702 2.77112898 1.09452061 5.54105288 1.125 8.3125 C1.14175781 9.05951172 1.15851563 9.80652344 1.17578125 10.57617188 C1.22939957 17.19803483 0.55054535 23.66764184 -0.18379211 30.23699951 C-0.86954645 36.47497408 -1.38787256 42.71195651 -1.81640625 48.97265625 C-1.87896606 49.88459244 -1.94152588 50.79652863 -2.00598145 51.73609924 C-2.25916384 55.47328176 -2.50637623 59.21084524 -2.75268555 62.94848633 C-2.93708007 65.72762581 -3.12652436 68.50638718 -3.31640625 71.28515625 C-3.37059219 72.13392838 -3.42477814 72.9827005 -3.48060608 73.85719299 C-3.8869903 79.7739806 -3.8869903 79.7739806 -5 82 C-5.66 82 -6.32 82 -7 82 C-6.39990693 68.06364079 -5.46965836 54.1722573 -4.32543945 40.27026367 C-4.06081479 37.04194102 -3.80460529 33.81301869 -3.54882812 30.58398438 C-2.720183 20.32053407 -1.85236695 10.13907611 0 0 Z " fill="#7886EC" transform="translate(70,56)"/>
<path d="M0 0 C3.3 0 6.6 0 10 0 C10 1.65 10 3.3 10 5 C8.35 5 6.7 5 5 5 C5 5.66 5 6.32 5 7 C6.32 7.33 7.64 7.66 9 8 C8.67 9.65 8.34 11.3 8 13 C7.01 13 6.02 13 5 13 C5 13.66 5 14.32 5 15 C6.65 15 8.3 15 10 15 C10 16.98 10 18.96 10 21 C6.7 21 3.4 21 0 21 C0 14.07 0 7.14 0 0 Z " fill="#7EA4D5" transform="translate(149,153)"/>
<path d="M0 0 C0.66 0.33 1.32 0.66 2 1 C0.50260417 2.3671875 -0.99479167 3.734375 -2.4921875 5.1015625 C-5.98489265 9.49911355 -6.3158833 14.49285174 -6.375 19.9375 C-6.40335937 21.10152344 -6.43171875 22.26554687 -6.4609375 23.46484375 C-5.69788836 35.85699835 -0.51436233 46.99577839 5 57.875 C5.6237011 59.12695476 6.24610032 60.37955894 6.8671875 61.6328125 C7.17035889 62.2442511 7.47353027 62.8556897 7.78588867 63.48565674 C8.08342041 64.08593689 8.38095215 64.68621704 8.6875 65.3046875 C9.25855469 66.45549805 9.82960938 67.60630859 10.41796875 68.79199219 C13.22229288 74.47853834 13.22229288 74.47853834 14.5 77.1953125 C14.8196875 77.86836426 15.139375 78.54141602 15.46875 79.23486328 C16 81 16 81 15 84 C13 83 13 83 12.24609375 81.09375 C11.97925781 80.2378125 11.71242188 79.381875 11.4375 78.5 C9.62244113 73.25876259 7.26840331 68.54147185 4.625 63.6875 C-4.09579086 47.5335878 -13.22507128 28.80546113 -7.8125 10.0625 C-6.33235937 6.16031107 -4.21114247 3.70411997 -1 1 C-0.67 0.67 -0.34 0.34 0 0 Z " fill="#604CBF" transform="translate(296,26)"/>
<path d="M0 0 C0.66 0.33 1.32 0.66 2 1 C0.84826645 3.46800047 -0.04783565 5.04783565 -2 7 C-2.31148785 8.63531119 -2.55081597 10.28474682 -2.75 11.9375 C-3.79731017 18.42738925 -6.5872062 23.45152706 -10 29 C-10.66 29 -11.32 29 -12 29 C-12.04898438 29.78246094 -12.09796875 30.56492187 -12.1484375 31.37109375 C-12.22320312 32.38300781 -12.29796875 33.39492187 -12.375 34.4375 C-12.44460937 35.44683594 -12.51421875 36.45617187 -12.5859375 37.49609375 C-12.72257813 38.32238281 -12.85921875 39.14867187 -13 40 C-13.99 40.495 -13.99 40.495 -15 41 C-14.45354561 35.90912607 -13.90208818 30.81882878 -13.34594727 25.72900391 C-13.15738853 23.99673215 -12.97020795 22.26430981 -12.78442383 20.53173828 C-12.51744301 18.04418904 -12.245542 15.55722001 -11.97265625 13.0703125 C-11.89032242 12.29317902 -11.80798859 11.51604553 -11.72315979 10.71536255 C-11.11387171 5.22774341 -11.11387171 5.22774341 -10 3 C-9.34 3 -8.68 3 -8 3 C-8.29296875 5.05078125 -8.5859375 7.1015625 -8.87890625 9.15234375 C-8.91886719 9.76207031 -8.95882812 10.37179688 -9 11 C-8.67 11.33 -8.34 11.66 -8 12 C-7.59007812 11.30132812 -7.18015625 10.60265625 -6.7578125 9.8828125 C-6.21898437 8.97273438 -5.68015625 8.06265625 -5.125 7.125 C-4.59132812 6.22007813 -4.05765625 5.31515625 -3.5078125 4.3828125 C-2 2 -2 2 0 0 Z " fill="#7E9FF0" transform="translate(157,63)"/>
<path d="M0 0 C0 2.31 0 4.62 0 7 C0.99 7 1.98 7 3 7 C2.67 9.31 2.34 11.62 2 14 C-2.95 14 -7.9 14 -13 14 C-12.34 13.67 -11.68 13.34 -11 13 C-11.33 11.68 -11.66 10.36 -12 9 C-13.32 8.67 -14.64 8.34 -16 8 C-15.360625 7.896875 -14.72125 7.79375 -14.0625 7.6875 C-13.381875 7.460625 -12.70125 7.23375 -12 7 C-11.67 6.01 -11.34 5.02 -11 4 C-8.75 2.83203125 -8.75 2.83203125 -6 1.8125 C-5.0925 1.46832031 -4.185 1.12414062 -3.25 0.76953125 C-1 0 -1 0 0 0 Z " fill="rgba(124,240,10,0.5)" fill-opacity="0" transform="translate(116,151)"/>
<path d="M0 0 C2 3 2 3 1.7578125 5.19140625 C1.54898438 5.97386719 1.34015625 6.75632812 1.125 7.5625 C0.27171596 10.74395296 0.27171596 10.74395296 0 14 C3.55780196 13.39009109 6.6828589 12.4216319 10 11 C10.33 11.99 10.66 12.98 11 14 C11.59014893 13.99476318 12.18029785 13.98952637 12.78833008 13.98413086 C15.46304255 13.96333953 18.13773801 13.95033299 20.8125 13.9375 C21.74126953 13.92912109 22.67003906 13.92074219 23.62695312 13.91210938 C24.51962891 13.90888672 25.41230469 13.90566406 26.33203125 13.90234375 C27.15421143 13.89710693 27.9763916 13.89187012 28.82348633 13.88647461 C31 14 31 14 34 15 C34.03738281 14.22914063 34.07476562 13.45828125 34.11328125 12.6640625 C34.17902344 11.66117188 34.24476563 10.65828125 34.3125 9.625 C34.39951172 8.12839844 34.39951172 8.12839844 34.48828125 6.6015625 C34.65714844 5.74304688 34.82601562 4.88453125 35 4 C35.99 3.34 36.98 2.68 38 2 C37.85737588 3.5627962 37.71074489 5.12522696 37.5625 6.6875 C37.48128906 7.55761719 37.40007812 8.42773438 37.31640625 9.32421875 C37.01156391 11.90220641 36.50910741 14.45446295 36 17 C23.13 17 10.26 17 -3 17 C-1 4 -1 4 0 0 Z " fill="#78CFFA" transform="translate(100,121)"/>
<path d="M0 0 C0.89847656 0.00257813 1.79695312 0.00515625 2.72265625 0.0078125 C3.61855469 0.00523437 4.51445312 0.00265625 5.4375 0 C7.78515625 0.1328125 7.78515625 0.1328125 9.78515625 1.1328125 C9.78515625 2.7828125 9.78515625 4.4328125 9.78515625 6.1328125 C8.46515625 6.1328125 7.14515625 6.1328125 5.78515625 6.1328125 C5.78515625 8.1128125 5.78515625 10.0928125 5.78515625 12.1328125 C6.44515625 12.4628125 7.10515625 12.7928125 7.78515625 13.1328125 C7.12515625 13.1328125 6.46515625 13.1328125 5.78515625 13.1328125 C5.78515625 16.1028125 5.78515625 19.0728125 5.78515625 22.1328125 C4.13515625 21.8028125 2.48515625 21.4728125 0.78515625 21.1328125 C0.78515625 16.1828125 0.78515625 11.2328125 0.78515625 6.1328125 C-0.53484375 6.1328125 -1.85484375 6.1328125 -3.21484375 6.1328125 C-3.25756475 4.46669345 -3.25548207 2.79898365 -3.21484375 1.1328125 C-2.21484375 0.1328125 -2.21484375 0.1328125 0 0 Z " fill="#4E3D88" transform="translate(242.21484375,151.8671875)"/>
<path d="M0 0 C3.96 0 7.92 0 12 0 C12 1.65 12 3.3 12 5 C10.68 5 9.36 5 8 5 C8 10.28 8 15.56 8 21 C6.35 21 4.7 21 3 21 C3 15.72 3 10.44 3 5 C2.01 5 1.02 5 0 5 C0 3.35 0 1.7 0 0 Z " fill="#797FD4" transform="translate(116,153)"/>
<path d="M0 0 C1.65 0.33 3.3 0.66 5 1 C5.10022461 1.85754883 5.20044922 2.71509766 5.30371094 3.59863281 C5.68514535 6.79109182 6.08198963 9.98115208 6.48925781 13.17041016 C6.66209281 14.54888254 6.82883404 15.92813363 6.98925781 17.30810547 C7.22143044 19.2959044 7.47763784 21.28084925 7.734375 23.265625 C7.95432129 25.05661621 7.95432129 25.05661621 8.17871094 26.88378906 C9.10883853 30.41296522 10.15240426 31.77355121 13 34 C15.34038761 34.68533632 15.34038761 34.68533632 17.75 34.75 C18.94882813 34.83507812 18.94882813 34.83507812 20.171875 34.921875 C20.77515625 34.94765625 21.3784375 34.9734375 22 35 C23.33332095 32.3333581 22.67102033 30.83319697 22 28 C22.99 28.33 23.98 28.66 25 29 C25 31.64 25 34.28 25 37 C19.06 37 13.12 37 7 37 C6.79503906 35.55367187 6.59007812 34.10734375 6.37890625 32.6171875 C6.10680837 30.70311966 5.83467087 28.78905746 5.5625 26.875 C5.42779297 25.92367187 5.29308594 24.97234375 5.15429688 23.9921875 C4.61207205 20.18338871 4.06695263 16.38409667 3.40625 12.59375 C2.84561193 9.01429154 2.93761072 5.61857822 3 2 C1.68 2.33 0.36 2.66 -1 3 C-0.67 2.01 -0.34 1.02 0 0 Z " fill="#77C5F8" transform="translate(212,101)"/>
<path d="M0 0 C0.33 0 0.66 0 1 0 C1 21.12 1 42.24 1 64 C1.66 64.33 2.32 64.66 3 65 C1.02 65.495 1.02 65.495 -1 66 C-1.02312659 57.54232666 -1.0409167 49.08466644 -1.05181217 40.62696934 C-1.05704031 36.70011342 -1.06413669 32.77327906 -1.07543945 28.84643555 C-1.0862708 25.05985743 -1.09227736 21.2733001 -1.09487724 17.48670769 C-1.09673105 16.03895681 -1.10035081 14.59120712 -1.10573006 13.14346504 C-1.11294367 11.12242865 -1.11340808 9.10137152 -1.11352539 7.08032227 C-1.115746 5.92782486 -1.11796661 4.77532745 -1.12025452 3.58790588 C-1 1 -1 1 0 0 Z " fill="#7A9CF0" transform="translate(242,72)"/>
<path d="M0 0 C0.33 0 0.66 0 1 0 C1.34548714 6.33393082 0.29342747 11.10261508 -2 17 C-2.66 17 -3.32 17 -4 17 C-4.0825 17.66 -4.165 18.32 -4.25 19 C-5.56402244 24.25608977 -7.29453689 28.7596632 -11.75 32 C-12.86375 32.495 -12.86375 32.495 -14 33 C-12 27 -12 27 -11.26953125 24.84375 C-11.01558594 24.0909375 -10.76164063 23.338125 -10.5 22.5625 C-10.23960937 21.79550781 -9.97921875 21.02851562 -9.7109375 20.23828125 C-9.08584143 18.270259 -8.59420889 16.26089525 -8.125 14.25 C-6.7961408 10.41107341 -5.1112188 8.56675551 -2 6 C-1.34 6 -0.68 6 0 6 C0 4.02 0 2.04 0 0 Z M-15 33 C-14.67 33.99 -14.34 34.98 -14 36 C-14.99 36.495 -14.99 36.495 -16 37 C-15.67 35.68 -15.34 34.36 -15 33 Z " fill="#96AFEC" transform="translate(162,58)"/>
<path d="M0 0 C0.33 0 0.66 0 1 0 C1.55726169 4.28189191 2.10825917 8.56453526 2.65405273 12.84790039 C2.839607 14.29765295 3.02672105 15.74720694 3.21557617 17.1965332 C4.50842181 27.12903528 5.42380534 36.99847375 6 47 C0.06 47 -5.88 47 -12 47 C-12 45.35 -12 43.7 -12 42 C-11.67 42.99 -11.34 43.98 -11 45 C-9.700625 44.505 -9.700625 44.505 -8.375 44 C-5.03115484 43.00923106 -2.45578295 42.92145948 1 43 C1.99 42.505 1.99 42.505 3 42 C2.71733139 38.08263113 2.42215935 34.16629417 2.125 30.25 C2.04636719 29.15816406 1.96773437 28.06632812 1.88671875 26.94140625 C1.38442739 20.41161854 0.58409246 14.07198725 -0.69970703 7.64746094 C-1.01798887 4.84140542 -0.69907891 2.72117234 0 0 Z " fill="#88D2F7" transform="translate(185,91)"/>
<path d="M0 0 C0.66 0 1.32 0 2 0 C1.43373791 10.83721336 0.49714968 21.58709718 -0.72949219 32.36816406 C-1.00444864 34.78917052 -1.27211941 37.21091063 -1.5390625 39.6328125 C-1.71312054 41.1875472 -1.88758401 42.74223659 -2.0625 44.296875 C-2.14169678 45.01349304 -2.22089355 45.73011108 -2.30249023 46.46844482 C-2.67484845 49.71192717 -3.08732475 52.86015485 -4 56 C-4.66 56 -5.32 56 -6 56 C-5.37781633 43.77710142 -3.96446711 31.70066653 -2.4375 19.5625 C-2.20078607 17.65564681 -1.96445547 15.748746 -1.72851562 13.84179688 C-1.15675044 9.22730497 -0.57984026 4.61348388 0 0 Z " fill="#685ACD" transform="translate(37,82)"/>
<path d="M0 0 C0.33 0 0.66 0 1 0 C1.94764159 25.33933126 2.12134427 50.64464718 2 76 C1.01 76 0.02 76 -1 76 C-0.505 38.38 -0.505 38.38 0 0 Z " fill="#6D60D7" transform="translate(266,40)"/>
<path d="M0 0 C-0.33 0.99 -0.66 1.98 -1 3 C-2.92578125 3.66015625 -2.92578125 3.66015625 -5.3125 4.0625 C-8.55886568 4.62591884 -11.10699985 5.40454683 -14 7 C-14.56577416 15.62805589 -13.07553247 23.23247272 -7.5 30.0625 C-2.76454978 33.73247392 -0.08859131 34.23417659 6 34 C5.67 34.66 5.34 35.32 5 36 C-0.84586858 36.48715571 -5.31189408 35.72011644 -10 32 C-16.83398345 23.36137157 -17.1700345 15.61771019 -17 5 C-14.91999989 4.15838146 -12.83585854 3.32699237 -10.75 2.5 C-9.58984375 2.0359375 -8.4296875 1.571875 -7.234375 1.09375 C-4 0 -4 0 0 0 Z " fill="#6D60D3" transform="translate(304,103)"/>
<path d="M0 0 C2.9375 0.75 2.9375 0.75 4.9375 2.75 C5.13599071 5.29535141 5.21601775 7.70716759 5.1875 10.25 C5.19523437 10.93964844 5.20296875 11.62929687 5.2109375 12.33984375 C5.19083293 17.49666707 5.19083293 17.49666707 2.9375 19.75 C2.9375 16.45 2.9375 13.15 2.9375 9.75 C1.9475 9.75 0.9575 9.75 -0.0625 9.75 C-0.0625 8.1 -0.0625 6.45 -0.0625 4.75 C-0.7225 4.75 -1.3825 4.75 -2.0625 4.75 C-2.0625 8.71 -2.0625 12.67 -2.0625 16.75 C-2.7225 16.75 -3.3825 16.75 -4.0625 16.75 C-4.3925 13.45 -4.7225 10.15 -5.0625 6.75 C-5.3925 6.75 -5.7225 6.75 -6.0625 6.75 C-6.25 4.375 -6.25 4.375 -6.0625 1.75 C-3.0625 -0.25 -3.0625 -0.25 0 0 Z " fill="#6458B7" transform="translate(86.0625,152.25)"/>
<path d="M0 0 C6.3782235 -0.36103152 6.3782235 -0.36103152 8.9375 1.125 C10.50422245 3.88980433 10.38976435 5.88188517 10 9 C8.875 10.875 8.875 10.875 7 12 C4.0625 12.5 4.0625 12.5 1 12 C-1.4375 9.6875 -1.4375 9.6875 -3 7 C-2 4 -2 4 1 2 C0.67 1.34 0.34 0.68 0 0 Z M3 4 C4 7 4 7 4 7 Z " fill="#4B398E" transform="translate(226,162)"/>
<path d="M0 0 C0.33 0 0.66 0 1 0 C1.0809723 2.43816585 1.14046972 4.87364384 1.1875 7.3125 C1.22520508 8.34793945 1.22520508 8.34793945 1.26367188 9.40429688 C1.33753944 14.50115853 1.33753944 14.50115853 -0.32421875 16.95703125 C-2.9553384 18.59458124 -4.98263922 18.3771701 -8 18 C-9.9375 16.875 -9.9375 16.875 -11 15 C-10.6875 11.8125 -10.6875 11.8125 -10 9 C-9.34 9 -8.68 9 -8 9 C-7.67 6.36 -7.34 3.72 -7 1 C-6.01 1.33 -5.02 1.66 -4 2 C-4.66 2 -5.32 2 -6 2 C-5.67 5.63 -5.34 9.26 -5 13 C-4.67 13 -4.34 13 -4 13 C-3.67 11.35 -3.34 9.7 -3 8 C-2.34 8 -1.68 8 -1 8 C-0.67 5.36 -0.34 2.72 0 0 Z " fill="#5744A9" transform="translate(201,156)"/>
<path d="M0 0 C1.05648668 2.74686536 1.03514246 3.89517078 0.08203125 6.73828125 C-1.35376187 11.06639408 -1.79230802 15.36572341 -2.33984375 19.87890625 C-3.0356174 23.16839232 -4.17352019 25.20823035 -6 28 C-6.71143088 29.98451771 -7.38991336 31.98202112 -8 34 C-9.45216851 30.02455998 -8.73839363 26.20985755 -8.1875 22.125 C-8.10435547 21.43019531 -8.02121094 20.73539063 -7.93554688 20.01953125 C-7.39088396 15.79739977 -6.43712879 12.02628795 -5 8 C-4.63079809 6.00630969 -4.28674418 4.00720923 -4 2 C-3.34 2.66 -2.68 3.32 -2 4 C-1.34 2.68 -0.68 1.36 0 0 Z " fill="#83CAF8" transform="translate(149,90)"/>
<path d="M0 0 C2.00378805 3.00568207 2.29045938 4.00515765 2.5625 7.4375 C2.80800744 10.3986204 3.20970486 13.13273084 4 16 C2.35 16 0.7 16 -1 16 C-1.33 15.01 -1.66 14.02 -2 13 C-2.99 13 -3.98 13 -5 13 C-5.33 13.99 -5.66 14.98 -6 16 C-7.65 16 -9.3 16 -11 16 C-10.01 13.69 -9.02 11.38 -8 9 C-7.34 9 -6.68 9 -6 9 C-5.67 7.35 -5.34 5.7 -5 4 C-4.67 4 -4.34 4 -4 4 C-4 5.98 -4 7.96 -4 10 C-3.01 9.67 -2.02 9.34 -1 9 C-0.67 6.03 -0.34 3.06 0 0 Z " fill="#543EA0" transform="translate(217,158)"/>
<path d="M0 0 C3.5 0.25 3.5 0.25 5.5 2.25 C5.625 5.375 5.625 5.375 5.5 8.25 C3.85 8.58 2.2 8.91 0.5 9.25 C0.17 8.26 -0.16 7.27 -0.5 6.25 C-1.16 7.9 -1.82 9.55 -2.5 11.25 C-3.16 11.25 -3.82 11.25 -4.5 11.25 C-6.5 8.25 -6.5 8.25 -6.25 5.1875 C-5.15742074 0.90823124 -4.44043745 0.3171741 0 0 Z " fill="#88B6E6" transform="translate(179.5,152.75)"/>
<path d="M0 0 C6.75 -0.125 6.75 -0.125 9 1 C8.67 2.65 8.34 4.3 8 6 C6.68 6 5.36 6 4 6 C4 6.66 4 7.32 4 8 C5.32 8 6.64 8 8 8 C8 9.32 8 10.64 8 12 C5.36 12.33 2.72 12.66 0 13 C0 8.71 0 4.42 0 0 Z " fill="#7370C7" transform="translate(96,152)"/>
<path d="M0 0 C0.33 0 0.66 0 1 0 C1.32602515 8.44023619 1.61937642 16.88075086 1.87988281 25.32324219 C1.98266012 28.46923063 2.10902039 31.61301989 2.2421875 34.7578125 C2.28833861 36.33848789 2.33278217 37.91921467 2.375 39.5 C2.41302734 40.20302246 2.45105469 40.90604492 2.49023438 41.63037109 C2.55708059 45.58314479 2.08711636 46.89751016 -0.5234375 49.96875 C-1.34070313 50.6390625 -2.15796875 51.309375 -3 52 C-4.32 51.34 -5.64 50.68 -7 50 C-6.195625 49.71125 -5.39125 49.4225 -4.5625 49.125 C-1.8673532 48.26737432 -1.8673532 48.26737432 -1 46 C-0.88213309 44.51987176 -0.82307062 43.03483534 -0.79467773 41.55029297 C-0.77473251 40.62948944 -0.75478729 39.70868591 -0.73423767 38.75997925 C-0.70916893 37.26617233 -0.70916893 37.26617233 -0.68359375 35.7421875 C-0.66281265 34.72399933 -0.64203156 33.70581116 -0.62062073 32.6567688 C-0.55510534 29.39624945 -0.49623098 26.13564794 -0.4375 22.875 C-0.39431668 20.66796017 -0.35070245 18.46092872 -0.30664062 16.25390625 C-0.19942195 10.83602499 -0.09765926 5.41806154 0 0 Z " fill="#7B8BF0" transform="translate(218,34)"/>
<path d="M0 0 C0.33 0 0.66 0 1 0 C1.20496094 0.83144531 1.40992188 1.66289063 1.62109375 2.51953125 C1.89050781 3.60621094 2.15992188 4.69289063 2.4375 5.8125 C2.83775391 7.43091797 2.83775391 7.43091797 3.24609375 9.08203125 C3.76077412 11.0740843 4.34937175 13.04811524 5 15 C4.77013998 16.93739161 4.53488097 18.87461892 4.25 20.8046875 C3.99891739 23.00950667 3.99708302 25.09649969 4.0625 27.3125 C4 31 4 31 2 34 C0.52226006 22.60029192 -0.28189885 11.49520875 0 0 Z " fill="#96B4EB" transform="translate(167,56)"/>
<path d="M0 0 C0.33 0 0.66 0 1 0 C1.04898438 0.78246094 1.09796875 1.56492188 1.1484375 2.37109375 C1.22320312 3.38300781 1.29796875 4.39492187 1.375 5.4375 C1.44460937 6.44683594 1.51421875 7.45617187 1.5859375 8.49609375 C1.72257813 9.32238281 1.85921875 10.14867187 2 11 C2.66 11.33 3.32 11.66 4 12 C4 10.35 4 8.7 4 7 C5.32 7 6.64 7 8 7 C8 7.66 8 8.32 8 9 C7.01 9 6.02 9 5 9 C5 9.66 5 10.32 5 11 C6.65 11 8.3 11 10 11 C10 12.98 10 14.96 10 17 C6.7 17 3.4 17 0 17 C0 11.39 0 5.78 0 0 Z " fill="#483A85" transform="translate(149,157)"/>
<path d="M0 0 C0.33 0 0.66 0 1 0 C0.85866501 1.77119803 0.71176792 3.54195287 0.5625 5.3125 C0.48128906 6.29863281 0.40007812 7.28476563 0.31640625 8.30078125 C0 11 0 11 -1 14 C1.43922361 13.91299202 3.87478414 13.80613998 6.3125 13.6875 C7.34793945 13.65366211 7.34793945 13.65366211 8.40429688 13.61914062 C12.45242458 13.44765943 12.45242458 13.44765943 15.85546875 11.45703125 C16.23316406 10.97621094 16.61085937 10.49539062 17 10 C17.66 10 18.32 10 19 10 C18.74438677 12.3431213 18.40729228 14.67843403 18 17 C17.34 17.33 16.68 17.66 16 18 C15.67 17.01 15.34 16.02 15 15 C14.05125 15.165 13.1025 15.33 12.125 15.5 C7.44933156 16.17069015 2.71358636 16.3070152 -2 16 C-2.33 15.67 -2.66 15.34 -3 15 C-2.96189206 13.22651496 -2.84430224 11.45445061 -2.6875 9.6875 C-2.60886719 8.72199219 -2.53023438 7.75648437 -2.44921875 6.76171875 C-2.01767444 4.1086594 -1.34218678 2.30636993 0 0 Z " fill="#7ABCFA" transform="translate(120,104)"/>
<path d="M0 0 C1.20220203 3.53094302 0.79532349 6.12898982 0.0625 9.75 C-0.13214844 10.73484375 -0.32679688 11.7196875 -0.52734375 12.734375 C-0.68332031 13.48203125 -0.83929688 14.2296875 -1 15 C-9.07094823 15.10466648 -16.9874678 15.03387512 -25 14 C-24.67 13.34 -24.34 12.68 -24 12 C-21.06243881 11.9730499 -18.12512445 11.95318526 -15.1875 11.9375 C-14.35412109 11.92912109 -13.52074219 11.92074219 -12.66210938 11.91210938 C-11.85966797 11.90888672 -11.05722656 11.90566406 -10.23046875 11.90234375 C-9.49207764 11.89710693 -8.75368652 11.89187012 -7.99291992 11.88647461 C-6 12 -6 12 -3 13 C-2.95101562 12.22914063 -2.90203125 11.45828125 -2.8515625 10.6640625 C-2.77679688 9.66117188 -2.70203125 8.65828125 -2.625 7.625 C-2.55539063 6.62726563 -2.48578125 5.62953125 -2.4140625 4.6015625 C-2 2 -2 2 0 0 Z " fill="#79EBFD" transform="translate(137,123)"/>
<path d="M0 0 C0.33 0 0.66 0 1 0 C1 1.65 1 3.3 1 5 C4.465 4.505 4.465 4.505 8 4 C8 6.64 8 9.28 8 12 C9.32 12 10.64 12 12 12 C12 12.66 12 13.32 12 14 C10.35 14 8.7 14 7 14 C7 11.36 7 8.72 7 6 C6.34 6 5.68 6 5 6 C5 8.64 5 11.28 5 14 C3.02 14 1.04 14 -1 14 C-0.67 9.38 -0.34 4.76 0 0 Z " fill="#6055B6" transform="translate(132,160)"/>
<path d="M0 0 C2.97 0.99 5.94 1.98 9 3 C9.144375 4.093125 9.28875 5.18625 9.4375 6.3125 C9.88288104 9.93122987 9.88288104 9.93122987 11 13 C9.02 13 7.04 13 5 13 C3.11304374 8.71146306 1.41807378 4.47238653 0 0 Z " fill="rgba(124,240,10,0.5)" fill-opacity="0" transform="translate(215,152)"/>
<path d="M0 0 C0.99 0 1.98 0 3 0 C2.92777701 3.07275997 2.71980707 6.00601987 2 9 C-0.3125 11.125 -0.3125 11.125 -3 13 C-4.53855738 15.25852333 -5.73708195 17.56771338 -7 20 C-7.75 18.3125 -7.75 18.3125 -8 16 C-6.68962066 14.31522656 -5.35156675 12.65191491 -4 11 C-2.81837014 8.3912068 -1.89315779 5.71929571 -1 3 C-0.67 2.01 -0.34 1.02 0 0 Z M-9 20 C-7.54393481 24.52092968 -8.72967159 27.51648796 -10 32 C-10.33 32 -10.66 32 -11 32 C-10.85962479 30.18706911 -10.71255111 28.3746557 -10.5625 26.5625 C-10.48128906 25.55316406 -10.40007812 24.54382813 -10.31640625 23.50390625 C-10 21 -10 21 -9 20 Z " fill="#9ACCF5" transform="translate(158,74)"/>
<path d="M0 0 C0.66 0 1.32 0 2 0 C3.8017352 3.51576736 5.58953794 7.03844426 7.375 10.5625 C7.88289063 11.55314453 8.39078125 12.54378906 8.9140625 13.56445312 C11.48454829 18.65469142 13.70506308 23.43801192 15 29 C14.01 29 13.02 29 12 29 C11.8040625 28.3915625 11.608125 27.783125 11.40625 27.15625 C9.03951167 20.21925836 6.01786722 13.79724475 2.64257812 7.30859375 C0 2.19328184 0 2.19328184 0 0 Z " fill="#6655C7" transform="translate(297,80)"/>
<path d="M0 0 C0.33 0 0.66 0 1 0 C1 7.92 1 15.84 1 24 C-4.94 24 -10.88 24 -17 24 C-15.60804085 21.2160817 -13.84424221 21.02101003 -11 20 C-11 20.66 -11 21.32 -11 22 C-9.35 21.34 -7.7 20.68 -6 20 C-6 20.66 -6 21.32 -6 22 C-4.35 21.67 -2.7 21.34 -1 21 C-0.67 14.07 -0.34 7.14 0 0 Z " fill="#70DEFC" transform="translate(210,114)"/>
<path d="M0 0 C0.33 0 0.66 0 1 0 C1.20423721 22.10300505 1.20423721 22.10300505 0 29 C-0.99 29.66 -1.98 30.32 -3 31 C-2.55362542 20.53369067 -1.8785366 10.32283217 0 0 Z " fill="#6659C8" transform="translate(70,56)"/>
<path d="M0 0 C1.82783311 3.65566622 2.2773806 5.05716538 2.44921875 8.921875 C2.51399414 10.33726563 2.51399414 10.33726563 2.58007812 11.78125 C2.61552734 12.7609375 2.65097656 13.740625 2.6875 14.75 C2.75807617 16.19632813 2.75807617 16.19632813 2.83007812 17.671875 C3.06159025 23.25852835 2.87050413 28.47589862 2 34 C1.34 33.67 0.68 33.34 0 33 C0 22.11 0 11.22 0 0 Z " fill="#7EBAFB" transform="translate(193,69)"/>
<path d="M0 0 C0.66 0.33 1.32 0.66 2 1 C0.02 11.23 -1.96 21.46 -4 32 C-4.99 31.67 -5.98 31.34 -7 31 C-4.82976624 20.625625 -2.45871048 10.30911095 0 0 Z " fill="#7583E4" transform="translate(132,44)"/>
<path d="M0 0 C0 0.99 0 1.98 0 3 C-1.65 3 -3.3 3 -5 3 C-4.2236068 6.0745356 -4.2236068 6.0745356 -2 8 C-3 9 -3 9 -5.5 9.125 C-8 9 -8 9 -9 8 C-9.45378151 2.78151261 -9.45378151 2.78151261 -7.875 0.0625 C-5.07329973 -1.52513015 -3.03014356 -0.74070176 0 0 Z " fill="#7B7BD8" transform="translate(233,153)"/>
<path d="M0 0 C0.33 0 0.66 0 1 0 C1.16831537 9.70618661 0.64217298 19.32153574 0 29 C-0.99 28.34 -1.98 27.68 -3 27 C-2.69199513 23.43709646 -2.37780401 19.87476442 -2.0625 16.3125 C-1.97548828 15.30509766 -1.88847656 14.29769531 -1.79882812 13.25976562 C-1.71181641 12.28330078 -1.62480469 11.30683594 -1.53515625 10.30078125 C-1.456604 9.40528564 -1.37805176 8.50979004 -1.29711914 7.5871582 C-1.0019537 5.01701177 -0.54387764 2.52813451 0 0 Z " fill="#7175E2" transform="translate(68,82)"/>
<path d="M0 0 C0.66 0.33 1.32 0.66 2 1 C1.48493403 4.77715048 0.76071266 7.64443891 -1 11 C-1.30679688 11.68320313 -1.61359375 12.36640625 -1.9296875 13.0703125 C-2.24164063 13.74835938 -2.55359375 14.42640625 -2.875 15.125 C-3.18179688 15.80820313 -3.48859375 16.49140625 -3.8046875 17.1953125 C-5.25020292 19.37775735 -6.6055861 20.02820858 -9 21 C-8.72611372 17.07429664 -8.43558818 15.42441925 -5.5625 12.625 C-2.17457022 9.15443779 -1.92622394 6.708305 -1 2 C-0.67 1.34 -0.34 0.68 0 0 Z " fill="#ABEBFB" transform="translate(149,111)"/>
<path d="M0 0 C0.33 0.99 0.66 1.98 1 3 C1.86625 2.67 2.7325 2.34 3.625 2 C6.97724428 1.00674243 9.53537565 0.92300835 13 1 C13.99 0.67 14.98 0.34 16 0 C16.33 1.32 16.66 2.64 17 4 C13.16275828 4.90413673 9.62497726 5.10576898 5.6875 5.0625 C4.61886719 5.05347656 3.55023438 5.04445312 2.44921875 5.03515625 C1.64097656 5.02355469 0.83273438 5.01195312 0 5 C0 3.35 0 1.7 0 0 Z " fill="#9AF7FD" transform="translate(173,133)"/>
<path d="M0 0 C0.66 0.33 1.32 0.66 2 1 C2.125 7.75 2.125 7.75 1 10 C0.34 10 -0.32 10 -1 10 C-1 11.65 -1 13.3 -1 15 C-1.99 15.495 -1.99 15.495 -3 16 C-2.979375 14.783125 -2.95875 13.56625 -2.9375 12.3125 C-2.93175884 9.08022678 -3.21233685 6.15065259 -4 3 C-2.68 2.01 -1.36 1.02 0 0 Z " fill="#8199E4" transform="translate(199,154)"/>
<path d="M0 0 C0.33 0 0.66 0 1 0 C1.27990605 7.89957062 0.51537186 15.2472493 -1 23 C-1.66 23 -2.32 23 -3 23 C-2.22095672 7.25512528 -2.22095672 7.25512528 0 0 Z " fill="#7162D6" transform="translate(34,115)"/>
<path d="M0 0 C1.98 0 3.96 0 6 0 C6 2.31 6 4.62 6 7 C6.66 7 7.32 7 8 7 C8 7.66 8 8.32 8 9 C6.02 9 4.04 9 2 9 C1.34 6.03 0.68 3.06 0 0 Z " fill="#87A4E1" transform="translate(131,153)"/>
<path d="M0 0 C0.66 0 1.32 0 2 0 C2.32644414 4.16216275 2.40650982 6.36313462 0.125 9.9375 C-2 12 -2 12 -4 12 C-4.33 13.32 -4.66 14.64 -5 16 C-5.46188968 9.68750771 -3.46566434 5.19849651 0 0 Z " fill="#96E5FB" transform="translate(145,114)"/>
<path d="M0 0 C1.87225366 3.74450732 2.24550933 4.85027191 2.1953125 8.765625 C2.18886719 9.65507813 2.18242187 10.54453125 2.17578125 11.4609375 C2.15902344 12.38132812 2.14226562 13.30171875 2.125 14.25 C2.11597656 15.18585938 2.10695313 16.12171875 2.09765625 17.0859375 C2.07413636 19.39088657 2.04126853 21.6953116 2 24 C1.01 24 0.02 24 -1 24 C-0.67 16.08 -0.34 8.16 0 0 Z " fill="#767DE8" transform="translate(266,92)"/>
<path d="M0 0 C1.98 0 3.96 0 6 0 C7.33332095 2.6666419 6.67102033 4.16680303 6 7 C4.68 7 3.36 7 2 7 C1.01 7.33 0.02 7.66 -1 8 C-0.67 5.36 -0.34 2.72 0 0 Z " fill="#8995EA" transform="translate(210,153)"/>
<path d="M0 0 C1.65 0 3.3 0 5 0 C5 6.27 5 12.54 5 19 C4.67 19 4.34 19 4 19 C4 15.37 4 11.74 4 8 C3.01 8 2.02 8 1 8 C0.67 5.36 0.34 2.72 0 0 Z " fill="#91BDF1" transform="translate(139,153)"/>
<path d="M0 0 C0.33 0.66 0.66 1.32 1 2 C1.66 2 2.32 2 3 2 C3.89604368 8.04829486 4.11269443 13.8894576 4 20 C3.67 20 3.34 20 3 20 C2.67 18.02 2.34 16.04 2 14 C1.34 14 0.68 14 0 14 C-0.84811868 9.94787741 -0.97622427 7.01336646 0 3 C0 2.01 0 1.02 0 0 Z " fill="#8295EE" transform="translate(181,70)"/>
<path d="M0 0 C0 0.66 0 1.32 0 2 C-1.57201172 2.25523438 -1.57201172 2.25523438 -3.17578125 2.515625 C-4.55484273 2.75954064 -5.93374091 3.00438084 -7.3125 3.25 C-8.00279297 3.35957031 -8.69308594 3.46914063 -9.40429688 3.58203125 C-12.69418684 4.1859724 -14.60565844 4.55169592 -16.85546875 7.109375 C-17.23316406 7.73328125 -17.61085938 8.3571875 -18 9 C-18.66 9 -19.32 9 -20 9 C-20 7.35 -20 5.7 -20 4 C-16.12606564 2.27017565 -12.50542956 1.47740493 -8.3125 0.875 C-7.17425781 0.70742188 -6.03601563 0.53984375 -4.86328125 0.3671875 C-2 0 -2 0 0 0 Z " fill="#543EA3" transform="translate(120,26)"/>
<path d="M0 0 C2.00378805 3.00568207 2.29045938 4.00515765 2.5625 7.4375 C2.80800744 10.3986204 3.20970486 13.13273084 4 16 C2.35 16 0.7 16 -1 16 C-1.38133299 14.0085944 -1.71325582 12.00720923 -2 10 C-1.67 9.67 -1.34 9.34 -1 9 C-0.76807135 7.48530552 -0.58784762 5.96245438 -0.4375 4.4375 C-0.35371094 3.61121094 -0.26992187 2.78492188 -0.18359375 1.93359375 C-0.12300781 1.29550781 -0.06242188 0.65742188 0 0 Z " fill="#483D86" transform="translate(217,158)"/>
<path d="M0 0 C1.25009054 2.50018108 0.86733449 3.33935278 0.1875 6 C0.01605469 6.70125 -0.15539062 7.4025 -0.33203125 8.125 C-1 10 -1 10 -3 12 C-3.71408334 13.98356483 -4.38617742 15.98315437 -5 18 C-6.46123585 13.36399275 -5.53795041 9.52527816 -4 5 C-1.875 1.9375 -1.875 1.9375 0 0 Z " fill="#84D3FA" transform="translate(146,106)"/>
<path d="M0 0 C-0.33 1.32 -0.66 2.64 -1 4 C-1.66 4 -2.32 4 -3 4 C-3.0825 4.66 -3.165 5.32 -3.25 6 C-4.23853893 9.9541557 -5.85258517 13.53172247 -8 17 C-8.66 17.33 -9.32 17.66 -10 18 C-8.94977218 14.0991538 -7.80045493 10.60090986 -6 7 C-5.855625 6.13375 -5.71125 5.2675 -5.5625 4.375 C-4.80499454 1.17664362 -3.34197397 0 0 0 Z " fill="#96BCF1" transform="translate(161,71)"/>
<path d="M0 0 C3.3 0 6.6 0 10 0 C10 1.65 10 3.3 10 5 C9.67 4.34 9.34 3.68 9 3 C7.35 3 5.7 3 4 3 C4 4.65 4 6.3 4 8 C3.01 8.495 3.01 8.495 2 9 C2 6.36 2 3.72 2 1 C1.34 0.67 0.68 0.34 0 0 Z " fill="#92CAEE" transform="translate(149,153)"/>
<path d="M0 0 C1.37478516 0.01740234 1.37478516 0.01740234 2.77734375 0.03515625 C3.69644531 0.04417969 4.61554688 0.05320313 5.5625 0.0625 C6.27277344 0.07410156 6.98304688 0.08570313 7.71484375 0.09765625 C7.71484375 0.75765625 7.71484375 1.41765625 7.71484375 2.09765625 C4.08484375 3.41765625 0.45484375 4.73765625 -3.28515625 6.09765625 C-3.28515625 0.14039129 -3.28515625 0.14039129 0 0 Z " fill="#6661D5" transform="translate(242.28515625,151.90234375)"/>
<path d="M0 0 C0.99 0.33 1.98 0.66 3 1 C2.34 1 1.68 1 1 1 C1.33 5.29 1.66 9.58 2 14 C-0.97 13.505 -0.97 13.505 -4 13 C-3.67 11.35 -3.34 9.7 -3 8 C-2.34 8 -1.68 8 -1 8 C-0.67 5.36 -0.34 2.72 0 0 Z " fill="#6B66C4" transform="translate(194,157)"/>
<path d="M0 0 C-0.99 4.62 -1.98 9.24 -3 14 C-3.33 14 -3.66 14 -4 14 C-4.24915939 12.23186888 -4.47366632 10.46025018 -4.6875 8.6875 C-4.81511719 7.70136719 -4.94273437 6.71523437 -5.07421875 5.69921875 C-5 3 -5 3 -3.64453125 1.14453125 C-2 0 -2 0 0 0 Z " fill="#92B9F2" transform="translate(180,81)"/>
<path d="M0 0 C0.66 0.33 1.32 0.66 2 1 C0.84826645 3.46800047 -0.04783565 5.04783565 -2 7 C-2.71927295 9.31765729 -3.3909893 11.65095874 -4 14 C-4.99 13.34 -5.98 12.68 -7 12 C-5.63855967 6.80177328 -3.53269829 3.90456127 0 0 Z " fill="#8E9AEC" transform="translate(157,63)"/>
<path d="M0 0 C0.33 0 0.66 0 1 0 C1.1875 2.875 1.1875 2.875 1 6 C-2.4352048 8.29013653 -3.985331 8.17842973 -8 8 C-8.33 7.34 -8.66 6.68 -9 6 C-7.88625 5.7525 -6.7725 5.505 -5.625 5.25 C-1.95384802 4.38994661 -1.95384802 4.38994661 -0.5625 1.875 C-0.376875 1.25625 -0.19125 0.6375 0 0 Z " fill="#504398" transform="translate(184,166)"/>
<path d="M0 0 C0.99 0.33 1.98 0.66 3 1 C3 2.32 3 3.64 3 5 C3.66 5.33 4.32 5.66 5 6 C3.02 6.33 1.04 6.66 -1 7 C-1.66 5.35 -2.32 3.7 -3 2 C-2.01 1.34 -1.02 0.68 0 0 Z " fill="#6257B6" transform="translate(226,165)"/>
<path d="M0 0 C0.33 0 0.66 0 1 0 C1 6.27 1 12.54 1 19 C2.32 19.33 3.64 19.66 5 20 C3.35 20 1.7 20 0 20 C0 17.03 0 14.06 0 11 C-0.66 11 -1.32 11 -2 11 C-2.24042276 6.91281305 -1.42258812 3.82320557 0 0 Z " fill="#5B523C" transform="translate(94,154)"/>
<path d="M0 0 C5.625 -0.25 5.625 -0.25 9 2 C9 2.99 9 3.98 9 5 C3.5 5.36666667 3.5 5.36666667 1.125 3.625 C0 2 0 2 0 0 Z " fill="rgba(124,240,10,0.5)" fill-opacity="0" transform="translate(233,160)"/>
<path d="M0 0 C0 1.98 0 3.96 0 6 C-1.65 6.33 -3.3 6.66 -5 7 C-5.66666667 5 -6.33333333 3 -7 1 C-4 0 -4 0 0 0 Z " fill="#7C8CAC" transform="translate(185,155)"/>
<path d="M0 0 C0.66 0 1.32 0 2 0 C1.74438677 2.3431213 1.40729228 4.67843403 1 7 C0.01 7.495 0.01 7.495 -1 8 C-1.33 7.01 -1.66 6.02 -2 5 C-3.0725 5.185625 -4.145 5.37125 -5.25 5.5625 C-8.40391546 5.9304568 -10.09818492 6.04465343 -13 5 C-11.11692557 3.11692557 -7.78608313 3.63496931 -5.2265625 3.4765625 C-2.58607228 2.91140494 -1.7849322 1.9519434 0 0 Z " fill="#78D2FA" transform="translate(137,114)"/>
<path d="M0 0 C0.99 0.33 1.98 0.66 3 1 C2.04901734 2.98270912 1.08899297 4.96108379 0.125 6.9375 C-0.40867188 8.03964844 -0.94234375 9.14179687 -1.4921875 10.27734375 C-3 13 -3 13 -5 14 C-3.46527032 9.27775484 -1.76054874 4.64144669 0 0 Z M-6 14 C-5.67 14.99 -5.34 15.98 -5 17 C-5.99 17.495 -5.99 17.495 -7 18 C-6.67 16.68 -6.34 15.36 -6 14 Z " fill="#8AB2F2" transform="translate(153,77)"/>
<path d="M0 0 C0.66 0.33 1.32 0.66 2 1 C1.47462276 6.0302076 0.89405214 11.01885239 0 16 C-0.66 15.67 -1.32 15.34 -2 15 C-2.22577402 9.5814234 -1.46670113 5.22512279 0 0 Z " fill="#7DA0F4" transform="translate(125,75)"/>
<path d="M0 0 C0.33 0 0.66 0 1 0 C2.74558018 5.23674055 3.36867303 9.4699046 3 15 C2.34 15.99 1.68 16.98 1 18 C-0.32594359 12.03325384 -0.0884587 6.07416385 0 0 Z " fill="#B6E5F7" transform="translate(168,72)"/>
<path d="M0 0 C0.33 0 0.66 0 1 0 C1 4.95 1 9.9 1 15 C0.01 15.495 0.01 15.495 -1 16 C-2.76462683 12.91190305 -3 11.76687864 -3 8 C-2.34 8 -1.68 8 -1 8 C-0.67 5.36 -0.34 2.72 0 0 Z " fill="#6259B6" transform="translate(201,156)"/>
<path d="M0 0 C0.99 0 1.98 0 3 0 C3 4.62 3 9.24 3 14 C0.23508718 8.47017435 -0.09858498 6.11226863 0 0 Z " fill="#7E80E9" transform="translate(121,158)"/>
<path d="M0 0 C5.45454545 0.45454545 5.45454545 0.45454545 8 3 C8.14497985 5.58064129 8.18677545 8.04943884 8.125 10.625 C8.11597656 11.33140625 8.10695313 12.0378125 8.09765625 12.765625 C8.07407603 14.51056098 8.03820461 16.25532295 8 18 C7.67 18 7.34 18 7 18 C7 13.38 7 8.76 7 4 C2.545 3.01 2.545 3.01 -2 2 C-1.34 1.34 -0.68 0.68 0 0 Z " fill="#7B71E9" transform="translate(83,152)"/>
<path d="M0 0 C-0.33 0.99 -0.66 1.98 -1 3 C-2.890625 3.66015625 -2.890625 3.66015625 -5.25 4.0625 C-8.7065609 4.7185299 -11.77591185 5.54396019 -15 7 C-15 6.01 -15 5.02 -15 4 C-13.25307205 3.32532438 -11.50231475 2.66055844 -9.75 2 C-8.77546875 1.62875 -7.8009375 1.2575 -6.796875 0.875 C-4 0 -4 0 0 0 Z " fill="#675AC7" transform="translate(304,103)"/>
<path d="M0 0 C0.66 0 1.32 0 2 0 C2 2.97 2 5.94 2 9 C3.32 9.33 4.64 9.66 6 10 C5.34 10 4.68 10 4 10 C4 11.65 4 13.3 4 15 C3.01 14.67 2.02 14.34 1 14 C0.67 9.38 0.34 4.76 0 0 Z " fill="#7C95DD" transform="translate(149,154)"/>
<path d="M0 0 C0.66 0.33 1.32 0.66 2 1 C0.91103333 6.75762166 -0.29336293 12.39247819 -2 18 C-2.33 18 -2.66 18 -3 18 C-2.22095672 5.33029613 -2.22095672 5.33029613 0 0 Z " fill="#769FF2" transform="translate(105,98)"/>
<path d="M0 0 C0.99 0 1.98 0 3 0 C3 3.3 3 6.6 3 10 C2.01 10 1.02 10 0 10 C0 6.7 0 3.4 0 0 Z " fill="#482F87" transform="translate(244,162)"/>
<path d="M0 0 C3 3 3 3 3.29296875 5.26171875 C3.25816406 6.06222656 3.22335938 6.86273438 3.1875 7.6875 C3.16042969 8.49574219 3.13335937 9.30398437 3.10546875 10.13671875 C3.07066406 10.75160156 3.03585938 11.36648437 3 12 C2.01 12 1.02 12 0 12 C0 8.04 0 4.08 0 0 Z " fill="#473282" transform="translate(79,155)"/>
<path d="M0 0 C1.08892712 2.83121051 0.96109941 4.16532751 0.25 7.1875 C-0.1625 8.115625 -0.575 9.04375 -1 10 C-1.99 10.33 -2.98 10.66 -4 11 C-5.15941038 7.52176885 -4.70820884 5.54104422 -4 2 C-3.34 2.66 -2.68 3.32 -2 4 C-1.34 2.68 -0.68 1.36 0 0 Z " fill="#89C0F6" transform="translate(149,90)"/>
<path d="M0 0 C0.66 0 1.32 0 2 0 C1.70703125 1.98567708 1.4140625 3.97135417 1.12109375 5.95703125 C0.86095201 8.2025342 0.86095201 8.2025342 2 11 C0.68 11.99 -0.64 12.98 -2 14 C-1.85923685 12.0412957 -1.7122324 10.08303907 -1.5625 8.125 C-1.48128906 7.03445312 -1.40007812 5.94390625 -1.31640625 4.8203125 C-1 2 -1 2 0 0 Z " fill="#7C83EB" transform="translate(147,66)"/>
<path d="M0 0 C2.31 0 4.62 0 7 0 C7 0.99 7 1.98 7 3 C2.545 3.495 2.545 3.495 -2 4 C-1.34 2.68 -0.68 1.36 0 0 Z " fill="#93CFF3" transform="translate(176,153)"/>
<path d="M0 0 C6.75 -0.125 6.75 -0.125 9 1 C8.67 2.32 8.34 3.64 8 5 C5.03 4.505 5.03 4.505 2 4 C2 3.34 2 2.68 2 2 C1.34 1.34 0.68 0.68 0 0 Z " fill="#8C8DE1" transform="translate(96,152)"/>
<path d="M0 0 C1.65 0.33 3.3 0.66 5 1 C5.33 3.64 5.66 6.28 6 9 C5.01 9.33 4.02 9.66 3 10 C3 7.36 3 4.72 3 2 C1.68 2.33 0.36 2.66 -1 3 C-0.67 2.01 -0.34 1.02 0 0 Z " fill="#77B5F5" transform="translate(212,101)"/>
<path d="M0 0 C0.33 0 0.66 0 1 0 C1.29090909 7.56363636 1.29090909 7.56363636 -1 11 C-1.66 11.66 -2.32 12.32 -3 13 C-2.88490339 11.58249437 -2.75746342 10.16598831 -2.625 8.75 C-2.55539063 7.96109375 -2.48578125 7.1721875 -2.4140625 6.359375 C-1.98492887 3.914123 -1.21399362 2.15163097 0 0 Z " fill="#5642A9" transform="translate(140,5)"/>
<path d="M0 0 C2.08466413 3.38757921 2.42905061 6.05273438 2 10 C1.01 10.66 0.02 11.32 -1 12 C-2.36884358 7.48281619 -1.47075246 4.41225737 0 0 Z " fill="#AFE9FA" transform="translate(183,110)"/>
<path d="M0 0 C3.25 0.125 3.25 0.125 7 1 C9.4375 4.0625 9.4375 4.0625 11 7 C10.34 8.32 9.68 9.64 9 11 C8.62875 9.88625 8.2575 8.7725 7.875 7.625 C6.5205979 4.38621238 6.23787197 4.10727559 2.8125 2.5625 C1.4203125 2.2840625 1.4203125 2.2840625 0 2 C0 1.34 0 0.68 0 0 Z " fill="#5944AE" transform="translate(210,27)"/>
<path d="M0 0 C0.99 0.495 0.99 0.495 2 1 C2 1.66 2 2.32 2 3 C2.99 2.67 3.98 2.34 5 2 C4.34 4.31 3.68 6.62 3 9 C2.34 9 1.68 9 1 9 C0.67 6.03 0.34 3.06 0 0 Z " fill="#7688DA" transform="translate(173,161)"/>
<path d="M0 0 C0.33 0.99 0.66 1.98 1 3 C1.886875 2.67 2.77375 2.34 3.6875 2 C6.70923347 1.08777857 8.88373706 0.81669042 12 1 C11.67 1.99 11.34 2.98 11 4 C7.37 4 3.74 4 0 4 C0 2.68 0 1.36 0 0 Z " fill="#B6FCFE" transform="translate(173,133)"/>
<path d="M0 0 C1.88343932 3.76687864 2.22057835 5.02958963 2 9 C2.99 9 3.98 9 5 9 C5 9.66 5 10.32 5 11 C3.35 11 1.7 11 0 11 C0 7.37 0 3.74 0 0 Z " fill="#4A3088" transform="translate(119,163)"/>
<path d="M0 0 C0.33 0 0.66 0 1 0 C1 3.96 1 7.92 1 12 C-0.32 12.33 -1.64 12.66 -3 13 C-2.690625 12.154375 -2.38125 11.30875 -2.0625 10.4375 C-0.98461179 6.9502146 -0.43418696 3.61822465 0 0 Z " fill="#7064D1" transform="translate(216,155)"/>
<path d="M0 0 C0.33 0 0.66 0 1 0 C1.19644384 1.89492746 1.38177288 3.79100903 1.5625 5.6875 C1.66691406 6.74324219 1.77132812 7.79898438 1.87890625 8.88671875 C1.99277552 11.81426086 1.70848415 14.17131144 1 17 C0.34 16.67 -0.32 16.34 -1 16 C-0.67 10.72 -0.34 5.44 0 0 Z " fill="#84EEFE" transform="translate(194,120)"/>
<path d="M0 0 C0.66 0.33 1.32 0.66 2 1 C2.25 7.625 2.25 7.625 0 11 C-0.99 10.67 -1.98 10.34 -3 10 C-2.34 9.01 -1.68 8.02 -1 7 C-0.60612212 4.67612053 -0.26513915 2.34206251 0 0 Z " fill="#6455C5" transform="translate(311,111)"/>
<path d="M0 0 C0.33 0 0.66 0 1 0 C1 3.96 1 7.92 1 12 C2.32 12.33 3.64 12.66 5 13 C5 13.33 5 13.66 5 14 C3.02 14 1.04 14 -1 14 C-0.67 9.38 -0.34 4.76 0 0 Z " fill="#463388" transform="translate(132,160)"/>
<path d="M0 0 C1.65 0 3.3 0 5 0 C5 0.66 5 1.32 5 2 C4.34 2 3.68 2 3 2 C3 4.97 3 7.94 3 11 C2.01 11.495 2.01 11.495 1 12 C1.020625 10.7625 1.04125 9.525 1.0625 8.25 C1.06766681 5.3359175 0.93015558 2.79046673 0 0 Z " fill="#AAC0B9" transform="translate(195,158)"/>
<path d="M0 0 C0.66 0 1.32 0 2 0 C2 2.31 2 4.62 2 7 C0.68 7 -0.64 7 -2 7 C-1.125 1.125 -1.125 1.125 0 0 Z " fill="#5A4EA2" transform="translate(165,36)"/>
<path d="M0 0 C1.65 0 3.3 0 5 0 C5 1.32 5 2.64 5 4 C3.02 4 1.04 4 -1 4 C-0.67 2.68 -0.34 1.36 0 0 Z " fill="#80A0D4" transform="translate(154,168)"/>
<path d="M0 0 C1.2380014 3.57644848 0.74926071 6.33694766 0 10 C-0.99 9.67 -1.98 9.34 -3 9 C-2.25 2.25 -2.25 2.25 0 0 Z " fill="#7EE2FC" transform="translate(137,123)"/>
<path d="M0 0 C0.66 0.99 1.32 1.98 2 3 C1.16130925 6.91389016 0.22640104 9.66039844 -2 13 C-1.85769192 11.58297487 -1.71099254 10.1663904 -1.5625 8.75 C-1.48128906 7.96109375 -1.40007812 7.1721875 -1.31640625 6.359375 C-1.02365007 4.17635361 -0.57935581 2.1226818 0 0 Z " fill="#77ABF5" transform="translate(100,121)"/>
<path d="M0 0 C0.66 0 1.32 0 2 0 C1.6875 3.375 1.6875 3.375 1 7 C0.01 7.66 -0.98 8.32 -2 9 C-1.125 1.125 -1.125 1.125 0 0 Z " fill="#707EEB" transform="translate(108,84)"/>
<path d="M0 0 C0.33 0 0.66 0 1 0 C1.24915939 1.76813112 1.47366632 3.53974982 1.6875 5.3125 C1.81511719 6.29863281 1.94273437 7.28476562 2.07421875 8.30078125 C2 11 2 11 0.51953125 12.85546875 C0.01808594 13.23316406 -0.48335937 13.61085938 -1 14 C-1.08333357 9.1666528 -0.95261487 4.76307437 0 0 Z " fill="#D9DFF0" transform="translate(164,43)"/>
<path d="M0 0 C0.66 0.66 1.32 1.32 2 2 C1.9765625 4.1640625 1.9765625 4.1640625 1.625 6.625 C1.51414063 7.44226563 1.40328125 8.25953125 1.2890625 9.1015625 C1.19367188 9.72804688 1.09828125 10.35453125 1 11 C0.34 10.67 -0.32 10.34 -1 10 C-0.67 6.7 -0.34 3.4 0 0 Z " fill="#5D4CB8" transform="translate(136,19)"/>
<path d="M0 0 C0.66 0.33 1.32 0.66 2 1 C2 2.98 2 4.96 2 7 C1.01 7 0.02 7 -1 7 C-1.04254356 5.00045254 -1.04080783 2.99958364 -1 1 C-0.67 0.67 -0.34 0.34 0 0 Z " fill="#7670E4" transform="translate(141,165)"/>
<path d="M0 0 C0.33 0 0.66 0 1 0 C0.67 2.31 0.34 4.62 0 7 C-0.66 7 -1.32 7 -2 7 C-2.33 8.32 -2.66 9.64 -3 11 C-2.25 3.375 -2.25 3.375 0 0 Z " fill="#7E93E5" transform="translate(193,158)"/>
<path d="M0 0 C2.0625 0.4375 2.0625 0.4375 4 1 C2.75 3 2.75 3 1 5 C-0.32 5 -1.64 5 -3 5 C-1.125 1.125 -1.125 1.125 0 0 Z " fill="#8CA9DC" transform="translate(181,165)"/>
<path d="M0 0 C2.31 0.33 4.62 0.66 7 1 C7 1.66 7 2.32 7 3 C4.69 3.33 2.38 3.66 0 4 C0 2.68 0 1.36 0 0 Z " fill="#6353BB" transform="translate(96,161)"/>
<path d="M0 0 C0.66 0.33 1.32 0.66 2 1 C1.25 2.9375 1.25 2.9375 0 5 C-2.125 5.75 -2.125 5.75 -4 6 C-2.68 4.02 -1.36 2.04 0 0 Z " fill="#8695E3" transform="translate(157,63)"/>
<path d="M0 0 C0.99 0 1.98 0 3 0 C2.67 2.31 2.34 4.62 2 7 C1.34 7 0.68 7 0 7 C0 4.69 0 2.38 0 0 Z " fill="#695DCE" transform="translate(31,131)"/>
<path d="M0 0 C2.40820361 2.40820361 2.68097423 3.65022937 3 7 C2.34 8.32 1.68 9.64 1 11 C0.67 7.37 0.34 3.74 0 0 Z " fill="#A0CEF5" transform="translate(175,84)"/>
</svg>
